<svg width="0" height="0">
    <symbol fill="none" xmlns="http://www.w3.org/2000/svg" viewBox="0 0 28 28" id="profile">
        <path fill-rule="evenodd" clip-rule="evenodd" d="M23.1876 25.2H4.81344C3.8245 25.2 3.09421 24.2242 3.46721 23.3268C5.19787 19.1772 9.2637 16.8 13.9998 16.8C18.7373 16.8 22.8031 19.1772 24.5338 23.3268C24.9068 24.2242 24.1765 25.2 23.1876 25.2ZM8.28333 8.39998C8.28333 5.31158 10.8486 2.79998 13.9998 2.79998C17.1524 2.79998 19.7162 5.31158 19.7162 8.39998C19.7162 11.4884 17.1524 14 13.9998 14C10.8486 14 8.28333 11.4884 8.28333 8.39998ZM27.9379 24.6904C26.899 19.9878 23.6492 16.5171 19.3718 14.9421C21.6384 13.1543 22.9603 10.2633 22.4744 7.0979C21.9114 3.4257 18.793 0.487168 15.0288 0.0587676C9.8325 -0.533432 5.4251 3.42858 5.4251 8.39998C5.4251 11.046 6.67701 13.4035 8.62918 14.9421C4.35041 16.5171 1.10203 19.9878 0.0616336 24.6904C-0.315653 26.3998 1.0906 28 2.87556 28H25.124C26.9104 28 28.3167 26.3998 27.9379 24.6904Z" fill="currentColor"></path>
    </symbol>
    <symbol fill="none" xmlns="http://www.w3.org/2000/svg" viewBox="0 0 28 28" id="history">
    <g clip-path="url(#clip0_41_506)">
      <path d="M14 9.33333V14L16.9167 16.9167" stroke="currentColor" stroke-width="1.75" stroke-linecap="round" stroke-linejoin="round"></path>
      <path d="M2.99794 6.63472L1.92103 6.64014C1.92399 7.23066 2.40198 7.70866 2.99253 7.71163L2.99794 6.63472ZM6.64767 7.73C7.24244 7.73298 7.72701 7.25326 7.73 6.6585C7.73298 6.06374 7.25326 5.57917 6.6585 5.57618L6.64767 7.73ZM4.05648 2.97416C4.05348 2.3794 3.56892 1.89966 2.97416 1.90265C2.3794 1.90565 1.89966 2.39022 1.90266 2.98497L4.05648 2.97416ZM2.15385 14C2.15385 13.4053 1.67169 12.9231 1.07692 12.9231C0.48216 12.9231 0 13.4053 0 14H2.15385ZM21.0007 26.1264C21.5156 25.8286 21.6915 25.1698 21.3937 24.6549C21.0959 24.1402 20.4371 23.9641 19.9224 24.2621L21.0007 26.1264ZM24.2621 19.9224C23.9641 20.4371 24.1402 21.0959 24.6549 21.3937C25.1698 21.6915 25.8286 21.5156 26.1264 21.0007L24.2621 19.9224ZM4.15022 4.05104C3.72756 4.4695 3.72416 5.15137 4.14264 5.57402C4.5611 5.99668 5.24295 6.00007 5.66561 5.58161L4.15022 4.05104ZM23.8536 4.14667C18.3681 -1.33874 9.50395 -1.39428 4.05483 4.05483L5.57783 5.57783C10.1714 0.984236 17.6719 1.01093 22.3306 5.66967L23.8536 4.14667ZM4.05483 4.05483L2.23644 5.87322L3.75944 7.39622L5.57783 5.57783L4.05483 4.05483ZM2.99253 7.71163L6.64767 7.73L6.6585 5.57618L3.00335 5.55781L2.99253 7.71163ZM4.07485 6.62931L4.05648 2.97416L1.90266 2.98497L1.92103 6.64014L4.07485 6.62931ZM14 2.15385C20.5424 2.15385 25.8462 7.45755 25.8462 14H28C28 6.26801 21.732 0 14 0V2.15385ZM14 25.8462C7.45755 25.8462 2.15385 20.5424 2.15385 14H0C0 21.732 6.26801 28 14 28V25.8462ZM19.9224 24.2621C18.181 25.2694 16.1594 25.8462 14 25.8462V28C16.5483 28 18.9405 27.3182 21.0007 26.1264L19.9224 24.2621ZM25.8462 14C25.8462 16.1594 25.2694 18.181 24.2621 19.9224L26.1264 21.0007C27.3182 18.9405 28 16.5483 28 14H25.8462ZM5.66561 5.58161C7.80708 3.46136 10.7498 2.15385 14 2.15385V0C10.1596 0 6.67855 1.54777 4.15022 4.05104L5.66561 5.58161Z" fill="currentColor"></path>
    </g>
    <defs>
      <clipPath id="clip0_41_506">
        <rect width="28" height="28" fill="white"></rect>
      </clipPath>
    </defs>
  </symbol>
  <symbol fill="none" xmlns="http://www.w3.org/2000/svg" viewBox="0 0 28 28" id="exit">
    <g clip-path="url(#clip0_41_509)">
      <path d="M14 18.5L18.5 14M18.5 14L14 9.50001M18.5 14H2M2 6.87204V6.80031C2 5.12015 2 4.27944 2.32698 3.63771C2.61459 3.07322 3.0732 2.61461 3.6377 2.327C4.27943 2.00002 5.12013 2.00002 6.8003 2.00002H21.2003C22.8804 2.00002 23.7194 2.00002 24.3611 2.327C24.9255 2.61461 25.3857 3.07322 25.6733 3.63771C26 4.27881 26 5.1185 26 6.79538V21.2054C26 22.8823 26 23.7208 25.6733 24.3619C25.3857 24.9263 24.9255 25.3858 24.3611 25.6733C23.72 26 22.8815 26 21.2046 26H6.79536C5.11848 26 4.2788 26 3.6377 25.6733C3.0732 25.3858 2.61459 24.9259 2.32698 24.3614C2 23.7197 2 22.8802 2 21.2V21.125" stroke="currentColor" stroke-width="2.33333" stroke-linecap="round" stroke-linejoin="round"></path>
    </g>
    <defs>
      <clipPath id="clip0_41_509">
        <rect width="28" height="28" fill="white"></rect>
      </clipPath>
    </defs>
  </symbol>
  <symbol fill="none" xmlns="http://www.w3.org/2000/svg" viewBox="0 0 16 16" id="copy">
    <path d="M11.6667 9.33333H12.6667C13.4031 9.33333 14 8.7364 14 8V3.33333C14 2.59695 13.4031 2 12.6667 2H8C7.2636 2 6.66667 2.59695 6.66667 3.33333V4.33333M3.33333 6.66667H8C8.7364 6.66667 9.33333 7.2636 9.33333 8V12.6667C9.33333 13.4031 8.7364 14 8 14H3.33333C2.59695 14 2 13.4031 2 12.6667V8C2 7.2636 2.59695 6.66667 3.33333 6.66667Z" stroke="currentColor" stroke-linecap="round" stroke-linejoin="round"></path>
  </symbol>
  <symbol fill="none" xmlns="http://www.w3.org/2000/svg" viewBox="0 0 14 14" id="ver">
    <path d="M11.6667 3.79166L5.25001 10.2083L2.33334 7.29166" stroke="currentColor" stroke-width="1.5" stroke-linecap="round" stroke-linejoin="round"></path>
  </symbol>
  <symbol fill="none" xmlns="http://www.w3.org/2000/svg" viewBox="0 0 18 28" id="lamp">
    <path d="M6.29937 13.2418C6.29937 12.847 6.2263 12.416 5.9981 12.0854C5.53945 11.422 4.55583 11.2111 3.87123 11.6285C3.525 11.8406 3.33165 12.2095 3.22373 12.5886C3.00902 13.3422 3.10682 14.2019 3.25746 14.9578C3.30579 15.1993 3.35638 15.4407 3.42383 15.6787C3.44744 15.7645 3.45868 15.8886 3.51376 15.9608C3.61156 16.0849 3.84763 16.1199 3.99264 16.0962C4.42768 16.0228 4.31977 15.303 4.30515 14.9973C4.27143 14.282 4.06009 13.5871 4.26468 12.8752C4.35012 12.5728 4.51761 12.2343 4.82001 12.1035C5.09429 11.985 5.37083 12.1294 5.47875 12.3979C5.65411 12.8323 5.61027 13.3343 5.72044 13.7856C5.75753 13.9402 5.79913 14.0925 5.8677 14.2358C5.88793 14.2775 5.91604 14.3633 5.97337 14.3576C6.11501 14.3452 6.31511 14.1094 6.42077 14.0214C6.76251 13.7394 7.11324 13.4348 7.50557 13.226C7.69105 13.1268 7.99456 12.9665 8.18342 13.1358C8.23045 13.1788 8.27131 13.2282 8.30482 13.2824C8.5274 13.6322 8.30707 13.903 8.16206 14.2358C7.97545 14.6645 7.78435 15.0909 7.51343 15.4745C7.28074 15.8051 6.96261 16.0939 6.77713 16.4549C6.65684 16.6862 6.58939 16.9401 6.63886 17.2029C6.67933 17.415 6.84233 17.5425 7.05816 17.4929C7.21891 17.4557 7.32795 17.3169 7.42013 17.1894C7.58425 16.9615 7.73601 16.7246 7.89901 16.4956C8.21377 16.0522 8.58474 15.6381 8.85003 15.1609C9.16431 14.5857 9.32683 13.9395 9.32217 13.2836C9.32217 12.7488 9.12994 11.932 8.50942 11.8192C8.3875 11.8022 8.26361 11.806 8.14295 11.8305C7.99728 11.856 7.8558 11.9015 7.72252 11.9658C7.37286 12.1439 7.06065 12.3879 6.80298 12.6845C6.63886 12.865 6.49272 13.094 6.29824 13.243M5.71594 0.0182166C5.22694 0.0836521 4.72895 0.076883 4.2377 0.1536C3.29568 0.299138 2.39412 0.59247 1.51167 0.946724C1.19017 1.07534 0.873165 1.21862 0.56178 1.37093C0.445994 1.42734 0.269504 1.47246 0.176201 1.56272C0.127863 1.60898 0.13236 1.71954 0.126739 1.78272C0.111001 1.95872 0.0885187 2.13584 0.0705325 2.31297C0.00533267 2.99553 -0.041881 3.69953 0.0559188 4.38209C0.0873946 4.60209 0.157091 5.0026 0.426883 5.04434C0.841689 5.10978 1.16432 4.59645 1.36778 4.31327C1.84442 3.65214 2.38513 3.03615 3.1664 2.74056C4.08482 2.39307 5.13701 2.31072 6.10939 2.24415C8.83654 2.05574 11.8177 2.55666 13.8266 4.57275C14.1121 4.85932 14.383 5.16393 14.6135 5.49788C15.5128 6.80546 15.9883 8.29242 16.2176 9.85272C16.3255 10.5861 16.3986 11.3284 16.2322 12.0583C15.9433 13.3242 15.1845 14.4276 14.3145 15.3651C13.7187 16.0082 13.0464 16.5881 12.3483 17.1161C11.9583 17.4105 11.521 17.661 11.1545 17.9825C10.733 18.3537 10.3811 18.8174 10.1147 19.3127C9.39636 20.6451 9.20413 22.2482 9.41547 23.7352C9.45819 24.0398 9.49753 24.3467 9.56611 24.6479C9.58634 24.7382 9.59084 24.8927 9.64817 24.9661C9.75721 25.1037 10.0529 25.1793 10.2192 25.1872C10.3923 25.1951 10.507 25.0631 10.5497 24.9063C10.6217 24.64 10.579 24.3444 10.5362 24.0759C10.4508 23.5265 10.371 22.9737 10.3957 22.4163C10.4339 21.3935 10.8443 20.4202 11.5491 19.6805C12.2719 18.9212 13.2488 18.4834 14.0705 17.8471C15.7275 16.5655 17.2114 14.8371 17.7813 12.7793C17.9886 12.0406 18.0494 11.2682 17.96 10.5059C17.842 9.54811 17.4935 8.5914 17.1641 7.68884C16.1614 4.93942 14.4415 2.32425 11.711 1.06631C10.6273 0.566521 9.49304 0.338625 8.32056 0.175036C7.76974 0.0983187 7.21891 0.0509344 6.66584 0.026114C6.35782 0.0125756 6.02283 -0.0212703 5.71594 0.0193448M1.4431 17.8212C0.911386 17.8979 0.757379 18.3255 0.855179 18.8095C0.981082 19.4277 1.46558 19.8982 1.94559 20.2705C3.19528 21.2307 4.73892 21.7245 6.31173 21.6672C6.91652 21.6413 7.57526 21.5409 8.12946 21.2836C8.42736 21.146 8.73874 20.6485 8.33293 20.4363C8.27284 20.4077 8.20879 20.3883 8.14295 20.3788C7.96646 20.3495 7.76861 20.4251 7.60112 20.4736C7.30547 20.5582 7.00982 20.6462 6.70518 20.6947C5.79688 20.8414 4.81326 20.6327 4.06121 20.0922C3.45193 19.6556 2.95956 19.0791 2.49529 18.4958C2.21089 18.1393 1.95346 17.7479 1.4431 17.8212ZM0.751759 20.8425C0.616862 20.8606 0.460608 20.8549 0.344822 20.9407C0.103132 21.1189 0.369552 21.4777 0.49658 21.6401C0.865296 22.1106 1.35092 22.501 1.83655 22.8451C3.16683 23.799 4.73551 24.3623 6.36682 24.4719C6.84008 24.5058 7.32233 24.4719 7.7911 24.3929C7.96196 24.3636 8.17555 24.3512 8.33293 24.2767C8.78146 24.0669 8.65218 23.2174 8.25199 23.0289C8.07775 22.9466 7.79784 23.0549 7.61461 23.0808C7.18181 23.1418 6.7479 23.1485 6.31286 23.1373C5.17186 23.1091 3.95667 22.7559 2.96293 22.1997C2.57429 21.9786 2.21026 21.7165 1.87702 21.4179C1.67355 21.2374 1.46334 20.944 1.19916 20.8515C1.07551 20.8098 0.87991 20.8256 0.751759 20.8425ZM1.02268 23.3877C0.839506 23.4131 0.673178 23.5085 0.558407 23.654C0.470724 23.7533 0.387539 23.8424 0.336953 23.9676C0.0604153 24.6547 0.797848 25.3023 1.30821 25.6261C1.87477 25.9871 2.49417 26.2556 3.12481 26.4812C4.54796 26.9889 6.21843 27.315 7.69554 26.8603C8.13508 26.7249 8.57012 26.479 8.88938 26.145C9.06924 25.9566 9.19289 25.6723 8.8624 25.5516C8.6668 25.4805 8.4296 25.6622 8.25199 25.7344C7.83537 25.9086 7.39768 26.0269 6.95024 26.0864C6.35782 26.1586 5.82498 26.0277 5.25505 25.8844C4.76383 25.7715 4.27931 25.631 3.80379 25.4636C3.3961 25.3213 3.00843 25.1268 2.65042 24.8848C2.54475 24.8104 2.41885 24.7438 2.33342 24.6468C2.05238 24.3286 1.83992 23.9563 1.53865 23.654C1.40825 23.5231 1.22277 23.3652 1.02268 23.3877Z" fill="currentColor"></path>
  </symbol>
</svg>