<svg width="40" height="40" viewBox="0 0 40 40" fill="none" xmlns="http://www.w3.org/2000/svg">
<path d="M39.7416 13.0634C38.599 13.1402 34.711 13.5211 29.6806 13.5211C22.592 13.5211 22.1342 16.0358 19.9992 16.0358C17.5614 16.0358 17.714 13.5211 10.319 13.5211C5.28845 13.5211 1.40056 13.1402 0.257982 13.0634C-0.564752 13.0084 0.563139 21.1419 3.91642 24.1913C6.45548 26.4997 12.6066 28.4613 17.4088 25.2582C19.2387 23.8116 19.9992 23.8116 19.9992 23.8116C19.9992 23.8116 20.7633 23.8116 22.592 25.2582C27.393 28.4613 33.5453 26.4997 36.0832 24.1913C39.4364 21.1419 40.5656 13.0084 39.7416 13.0634ZM15.8158 19.9457C12.2489 23.924 6.41759 21.1798 6.34923 17.2003C12.9338 16.1725 16.0746 19.6564 15.8158 19.9457ZM24.1838 19.9457C23.9249 19.6564 27.0646 16.1725 33.6503 17.2003C33.582 21.1798 27.7519 23.924 24.1838 19.9457Z" fill="#426AFA"/>
</svg>
