<svg width="40" height="40" viewBox="0 0 40 40" fill="none" xmlns="http://www.w3.org/2000/svg">
<path fill-rule="evenodd" clip-rule="evenodd" d="M26.6666 6.54999C26.6665 6.3218 26.7289 6.09793 26.8469 5.90265C26.9649 5.70737 27.1342 5.54813 27.3363 5.44218C27.5384 5.33624 27.7656 5.28764 27.9934 5.30164C28.2211 5.31565 28.4407 5.39174 28.6283 5.52165L36.015 10.6367C36.181 10.7517 36.3167 10.9053 36.4104 11.0842C36.5042 11.2632 36.5531 11.4621 36.5531 11.6642C36.5531 11.8662 36.5042 12.0652 36.4104 12.2441C36.3167 12.423 36.181 12.5766 36.015 12.6917L28.6283 17.8067C28.4407 17.9366 28.2211 18.0127 27.9934 18.0267C27.7656 18.0407 27.5384 17.9921 27.3363 17.8861C27.1342 17.7802 26.9649 17.6209 26.8469 17.4257C26.7289 17.2304 26.6665 17.0065 26.6666 16.7783V13.3333H6.66664C6.22462 13.3333 5.80069 13.1577 5.48813 12.8452C5.17557 12.5326 4.99998 12.1087 4.99998 11.6667C4.99998 11.2246 5.17557 10.8007 5.48813 10.4881C5.80069 10.1756 6.22462 9.99999 6.66664 9.99999H26.6666V6.54999ZM11.3716 22.1883C11.5592 22.0584 11.7788 21.9823 12.0066 21.9683C12.2343 21.9543 12.4616 22.0029 12.6637 22.1088C12.8658 22.2148 13.035 22.374 13.1531 22.5693C13.2711 22.7646 13.3334 22.9885 13.3333 23.2167V26.6667H33.3333C33.7753 26.6667 34.1993 26.8422 34.5118 27.1548C34.8244 27.4674 35 27.8913 35 28.3333C35 28.7753 34.8244 29.1993 34.5118 29.5118C34.1993 29.8244 33.7753 30 33.3333 30H13.3333V33.445C13.3334 33.6732 13.2711 33.897 13.1531 34.0923C13.035 34.2876 12.8658 34.4468 12.6637 34.5528C12.4616 34.6587 12.2343 34.7073 12.0066 34.6933C11.7788 34.6793 11.5592 34.6032 11.3716 34.4733L3.98498 29.3583C3.81893 29.2433 3.68324 29.0897 3.58952 28.9108C3.49579 28.7318 3.44684 28.5328 3.44684 28.3308C3.44684 28.1288 3.49579 27.9298 3.58952 27.7509C3.68324 27.5719 3.81893 27.4184 3.98498 27.3033L11.3716 22.1883Z" fill="#426AFA"/>
</svg>
