<svg width="21" height="17" viewBox="0 0 21 17" fill="none" xmlns="http://www.w3.org/2000/svg">
<path d="M18.4838 0.349949C18.4838 0.349949 20.2646 -0.344426 20.1162 1.34192C20.0667 2.0363 19.6216 4.46661 19.2753 7.09534L18.0881 14.8823C18.0881 14.8823 17.9892 16.023 17.0988 16.2214C16.2084 16.4198 14.8729 15.5271 14.6255 15.3287C14.4276 15.1799 10.9156 12.9479 9.67894 11.8568C9.33267 11.5592 8.93694 10.964 9.7284 10.2696L14.9223 5.30981C15.5159 4.71462 16.1095 3.32587 13.6362 5.01221L6.711 9.72406C6.711 9.72406 5.91955 10.22 4.43561 9.77365L1.22032 8.78168C1.22032 8.78168 0.0331382 8.03772 2.06124 7.2937C7.00782 4.96257 13.0921 2.58185 18.4838 0.349949Z" fill="#426AFA"/>
</svg>
