<svg width="28" height="28" viewBox="0 0 28 28" fill="none" xmlns="http://www.w3.org/2000/svg">
<g clip-path="url(#clip0_41_506)">
<path d="M14 9.33333V14L16.9167 16.9167" stroke="#9D9D9D" stroke-width="1.75" stroke-linecap="round" stroke-linejoin="round"/>
<path d="M2.99794 6.63472L1.92103 6.64014C1.92399 7.23066 2.40198 7.70866 2.99253 7.71163L2.99794 6.63472ZM6.64767 7.73C7.24244 7.73298 7.72701 7.25326 7.73 6.6585C7.73298 6.06374 7.25326 5.57917 6.6585 5.57618L6.64767 7.73ZM4.05648 2.97416C4.05348 2.3794 3.56892 1.89966 2.97416 1.90265C2.3794 1.90565 1.89966 2.39022 1.90266 2.98497L4.05648 2.97416ZM2.15385 14C2.15385 13.4053 1.67169 12.9231 1.07692 12.9231C0.48216 12.9231 0 13.4053 0 14H2.15385ZM21.0007 26.1264C21.5156 25.8286 21.6915 25.1698 21.3937 24.6549C21.0959 24.1402 20.4371 23.9641 19.9224 24.2621L21.0007 26.1264ZM24.2621 19.9224C23.9641 20.4371 24.1402 21.0959 24.6549 21.3937C25.1698 21.6915 25.8286 21.5156 26.1264 21.0007L24.2621 19.9224ZM4.15022 4.05104C3.72756 4.4695 3.72416 5.15137 4.14264 5.57402C4.5611 5.99668 5.24295 6.00007 5.66561 5.58161L4.15022 4.05104ZM23.8536 4.14667C18.3681 -1.33874 9.50395 -1.39428 4.05483 4.05483L5.57783 5.57783C10.1714 0.984236 17.6719 1.01093 22.3306 5.66967L23.8536 4.14667ZM4.05483 4.05483L2.23644 5.87322L3.75944 7.39622L5.57783 5.57783L4.05483 4.05483ZM2.99253 7.71163L6.64767 7.73L6.6585 5.57618L3.00335 5.55781L2.99253 7.71163ZM4.07485 6.62931L4.05648 2.97416L1.90266 2.98497L1.92103 6.64014L4.07485 6.62931ZM14 2.15385C20.5424 2.15385 25.8462 7.45755 25.8462 14H28C28 6.26801 21.732 0 14 0V2.15385ZM14 25.8462C7.45755 25.8462 2.15385 20.5424 2.15385 14H0C0 21.732 6.26801 28 14 28V25.8462ZM19.9224 24.2621C18.181 25.2694 16.1594 25.8462 14 25.8462V28C16.5483 28 18.9405 27.3182 21.0007 26.1264L19.9224 24.2621ZM25.8462 14C25.8462 16.1594 25.2694 18.181 24.2621 19.9224L26.1264 21.0007C27.3182 18.9405 28 16.5483 28 14H25.8462ZM5.66561 5.58161C7.80708 3.46136 10.7498 2.15385 14 2.15385V0C10.1596 0 6.67855 1.54777 4.15022 4.05104L5.66561 5.58161Z" fill="#9D9D9D"/>
</g>
<defs>
<clipPath id="clip0_41_506">
<rect width="28" height="28" fill="white"/>
</clipPath>
</defs>
</svg>
