<svg width="34" height="34" viewBox="0 0 34 34" fill="none" xmlns="http://www.w3.org/2000/svg">
<path d="M17 24.0833V15.5833" stroke="#426AFA" stroke-width="2.125" stroke-linecap="round"/>
<path d="M17 9.91667C17.7824 9.91667 18.4167 10.5509 18.4167 11.3333C18.4167 12.1157 17.7824 12.75 17 12.75C16.2176 12.75 15.5833 12.1157 15.5833 11.3333C15.5833 10.5509 16.2176 9.91667 17 9.91667Z" fill="#426AFA"/>
<path d="M9.91668 4.72856C12.0004 3.52319 14.4197 2.83331 17 2.83331C24.824 2.83331 31.1667 9.17594 31.1667 17C31.1667 24.8239 24.824 31.1666 17 31.1666C9.17597 31.1666 2.83334 24.8239 2.83334 17C2.83334 14.4197 3.52322 12.0004 4.72859 9.91665" stroke="#426AFA" stroke-width="2.125" stroke-linecap="round"/>
</svg>
