<svg width="25" height="25" viewBox="0 0 25 25" fill="none" xmlns="http://www.w3.org/2000/svg">
<path d="M24.6258 15.5239C22.9561 22.2203 16.173 26.2957 9.47502 24.6258C2.77977 22.9562 -1.29605 16.1735 0.374439 9.47748C2.04337 2.78028 8.82651 -1.29546 15.5225 0.374057C22.2201 2.04357 26.2956 8.8271 24.6258 15.5239Z" fill="#F7931A"/>
<path fill-rule="evenodd" clip-rule="evenodd" d="M18.1965 10.867C18.4566 9.1157 17.1329 8.17426 15.3228 7.54622L15.91 5.1739L14.4764 4.81403L13.9048 7.12383C13.5279 7.02923 13.1408 6.93998 12.7562 6.85155L13.3319 4.52653L11.8992 4.16666L11.3116 6.53815C10.9996 6.46659 10.6934 6.39584 10.3962 6.3214L10.3978 6.314L8.42076 5.81675L8.0394 7.35908C8.0394 7.35908 9.10305 7.60462 9.08059 7.61984C9.66121 7.76585 9.76615 8.15287 9.74859 8.45969L9.07978 11.1623C9.11979 11.1726 9.17165 11.1874 9.22881 11.2104L9.18023 11.1982C9.14698 11.1898 9.11252 11.1811 9.07733 11.1726L8.13985 14.9585C8.0688 15.1361 7.88874 15.4027 7.48288 15.3015C7.49717 15.3225 6.44087 15.0395 6.44087 15.0395L5.72919 16.6925L7.59475 17.1609C7.80306 17.2135 8.00886 17.2676 8.21252 17.3211L8.21262 17.3211L8.21284 17.3211C8.34839 17.3568 8.483 17.3921 8.61675 17.4266L8.02348 19.8261L9.45542 20.186L10.043 17.812C10.4341 17.9189 10.8139 18.0176 11.1854 18.1106L10.5999 20.4734L12.0335 20.8333L12.6268 18.4384C15.0713 18.9044 16.9095 18.7164 17.6833 16.4893C18.3068 14.6961 17.6522 13.6617 16.3661 12.9872C17.3027 12.7696 18.0083 12.149 18.1965 10.867ZM14.9211 15.4936C14.5146 17.1388 11.9581 16.4586 10.7883 16.1474L10.7882 16.1473C10.683 16.1193 10.589 16.0944 10.5089 16.0743L11.2961 12.8954C11.3937 12.92 11.513 12.947 11.6482 12.9775L11.6483 12.9775C12.8581 13.251 15.3375 13.8114 14.9211 15.4936ZM11.8914 11.5023C12.8666 11.7645 14.9939 12.3363 15.3645 10.8411C15.7429 9.3116 13.6753 8.85055 12.6656 8.62538C12.552 8.60006 12.4518 8.57771 12.3699 8.55717L11.6562 11.4403C11.7236 11.4572 11.8027 11.4785 11.8914 11.5023Z" fill="white"/>
</svg>
