<svg width="25" height="25" viewBox="0 0 25 25" fill="none" xmlns="http://www.w3.org/2000/svg">
<g clip-path="url(#clip0_261_667)">
<path d="M12.5 25C19.4036 25 25 19.4036 25 12.5C25 5.59644 19.4036 0 12.5 0C5.59644 0 0 5.59644 0 12.5C0 19.4036 5.59644 25 12.5 25Z" fill="#FF6600"/>
<path d="M12.4766 4.08984C17.1524 4.08984 20.9336 7.87109 20.9336 12.5461C20.9305 13.4572 20.7833 14.3621 20.4977 15.2273H17.9774V8.12266L12.4774 13.6227L6.97737 8.12266V15.2273H4.45627C4.1709 14.3621 4.02403 13.4572 4.02112 12.5461C4.02112 7.87109 7.80159 4.08984 12.4766 4.08984ZM11.2172 14.8594L12.5 16.1211L13.7602 14.8602L16.1438 12.4539V16.9227H19.6961C18.9426 18.1619 17.8826 19.1861 16.6182 19.8966C15.3538 20.6071 13.9277 20.9798 12.4774 20.9789C9.42893 20.9789 6.74768 19.3523 5.25862 16.9227H8.81018V12.4539L11.2164 14.8602L11.2172 14.8594Z" fill="white"/>
</g>
<defs>
<clipPath id="clip0_261_667">
<rect width="25" height="25" fill="white"/>
</clipPath>
</defs>
</svg>
