<svg width="0" height="0">
    <symbol fill="none" xmlns="http://www.w3.org/2000/svg" viewBox="0 0 28 28" id="profile">
        <path fill-rule="evenodd" clip-rule="evenodd" d="M23.1876 25.2H4.81344C3.8245 25.2 3.09421 24.2242 3.46721 23.3268C5.19787 19.1772 9.2637 16.8 13.9998 16.8C18.7373 16.8 22.8031 19.1772 24.5338 23.3268C24.9068 24.2242 24.1765 25.2 23.1876 25.2ZM8.28333 8.39998C8.28333 5.31158 10.8486 2.79998 13.9998 2.79998C17.1524 2.79998 19.7162 5.31158 19.7162 8.39998C19.7162 11.4884 17.1524 14 13.9998 14C10.8486 14 8.28333 11.4884 8.28333 8.39998ZM27.9379 24.6904C26.899 19.9878 23.6492 16.5171 19.3718 14.9421C21.6384 13.1543 22.9603 10.2633 22.4744 7.0979C21.9114 3.4257 18.793 0.487168 15.0288 0.0587676C9.8325 -0.533432 5.4251 3.42858 5.4251 8.39998C5.4251 11.046 6.67701 13.4035 8.62918 14.9421C4.35041 16.5171 1.10203 19.9878 0.0616336 24.6904C-0.315653 26.3998 1.0906 28 2.87556 28H25.124C26.9104 28 28.3167 26.3998 27.9379 24.6904Z" fill="currentColor"></path>
    </symbol>
    <symbol fill="none" xmlns="http://www.w3.org/2000/svg" viewBox="0 0 28 28" id="history">
    <g clip-path="url(#clip0_41_506)">
      <path d="M14 9.33333V14L16.9167 16.9167" stroke="currentColor" stroke-width="1.75" stroke-linecap="round" stroke-linejoin="round"></path>
      <path d="M2.99794 6.63472L1.92103 6.64014C1.92399 7.23066 2.40198 7.70866 2.99253 7.71163L2.99794 6.63472ZM6.64767 7.73C7.24244 7.73298 7.72701 7.25326 7.73 6.6585C7.73298 6.06374 7.25326 5.57917 6.6585 5.57618L6.64767 7.73ZM4.05648 2.97416C4.05348 2.3794 3.56892 1.89966 2.97416 1.90265C2.3794 1.90565 1.89966 2.39022 1.90266 2.98497L4.05648 2.97416ZM2.15385 14C2.15385 13.4053 1.67169 12.9231 1.07692 12.9231C0.48216 12.9231 0 13.4053 0 14H2.15385ZM21.0007 26.1264C21.5156 25.8286 21.6915 25.1698 21.3937 24.6549C21.0959 24.1402 20.4371 23.9641 19.9224 24.2621L21.0007 26.1264ZM24.2621 19.9224C23.9641 20.4371 24.1402 21.0959 24.6549 21.3937C25.1698 21.6915 25.8286 21.5156 26.1264 21.0007L24.2621 19.9224ZM4.15022 4.05104C3.72756 4.4695 3.72416 5.15137 4.14264 5.57402C4.5611 5.99668 5.24295 6.00007 5.66561 5.58161L4.15022 4.05104ZM23.8536 4.14667C18.3681 -1.33874 9.50395 -1.39428 4.05483 4.05483L5.57783 5.57783C10.1714 0.984236 17.6719 1.01093 22.3306 5.66967L23.8536 4.14667ZM4.05483 4.05483L2.23644 5.87322L3.75944 7.39622L5.57783 5.57783L4.05483 4.05483ZM2.99253 7.71163L6.64767 7.73L6.6585 5.57618L3.00335 5.55781L2.99253 7.71163ZM4.07485 6.62931L4.05648 2.97416L1.90266 2.98497L1.92103 6.64014L4.07485 6.62931ZM14 2.15385C20.5424 2.15385 25.8462 7.45755 25.8462 14H28C28 6.26801 21.732 0 14 0V2.15385ZM14 25.8462C7.45755 25.8462 2.15385 20.5424 2.15385 14H0C0 21.732 6.26801 28 14 28V25.8462ZM19.9224 24.2621C18.181 25.2694 16.1594 25.8462 14 25.8462V28C16.5483 28 18.9405 27.3182 21.0007 26.1264L19.9224 24.2621ZM25.8462 14C25.8462 16.1594 25.2694 18.181 24.2621 19.9224L26.1264 21.0007C27.3182 18.9405 28 16.5483 28 14H25.8462ZM5.66561 5.58161C7.80708 3.46136 10.7498 2.15385 14 2.15385V0C10.1596 0 6.67855 1.54777 4.15022 4.05104L5.66561 5.58161Z" fill="currentColor"></path>
    </g>
    <defs>
      <clipPath id="clip0_41_506">
        <rect width="28" height="28" fill="white"></rect>
      </clipPath>
    </defs>
  </symbol>
  <symbol fill="none" xmlns="http://www.w3.org/2000/svg" viewBox="0 0 28 28" id="exit">
    <g clip-path="url(#clip0_41_509)">
      <path d="M14 18.5L18.5 14M18.5 14L14 9.50001M18.5 14H2M2 6.87204V6.80031C2 5.12015 2 4.27944 2.32698 3.63771C2.61459 3.07322 3.0732 2.61461 3.6377 2.327C4.27943 2.00002 5.12013 2.00002 6.8003 2.00002H21.2003C22.8804 2.00002 23.7194 2.00002 24.3611 2.327C24.9255 2.61461 25.3857 3.07322 25.6733 3.63771C26 4.27881 26 5.1185 26 6.79538V21.2054C26 22.8823 26 23.7208 25.6733 24.3619C25.3857 24.9263 24.9255 25.3858 24.3611 25.6733C23.72 26 22.8815 26 21.2046 26H6.79536C5.11848 26 4.2788 26 3.6377 25.6733C3.0732 25.3858 2.61459 24.9259 2.32698 24.3614C2 23.7197 2 22.8802 2 21.2V21.125" stroke="currentColor" stroke-width="2.33333" stroke-linecap="round" stroke-linejoin="round"></path>
    </g>
    <defs>
      <clipPath id="clip0_41_509">
        <rect width="28" height="28" fill="white"></rect>
      </clipPath>
    </defs>
  </symbol>
  <symbol fill="none" xmlns="http://www.w3.org/2000/svg" viewBox="0 0 16 16" id="copy">
    <path d="M11.6667 9.33333H12.6667C13.4031 9.33333 14 8.7364 14 8V3.33333C14 2.59695 13.4031 2 12.6667 2H8C7.2636 2 6.66667 2.59695 6.66667 3.33333V4.33333M3.33333 6.66667H8C8.7364 6.66667 9.33333 7.2636 9.33333 8V12.6667C9.33333 13.4031 8.7364 14 8 14H3.33333C2.59695 14 2 13.4031 2 12.6667V8C2 7.2636 2.59695 6.66667 3.33333 6.66667Z" stroke="currentColor" stroke-linecap="round" stroke-linejoin="round"></path>
  </symbol>
  <symbol fill="none" xmlns="http://www.w3.org/2000/svg" viewBox="0 0 14 14" id="ver">
    <path d="M11.6667 3.79166L5.25001 10.2083L2.33334 7.29166" stroke="#426AFA" stroke-width="1.5" stroke-linecap="round" stroke-linejoin="round"></path>
  </symbol>
</svg>