<svg width="25" height="25" viewBox="0 0 25 25" fill="none" xmlns="http://www.w3.org/2000/svg">
<circle cx="12.5" cy="12.5" r="12.5" fill="#C2A633"/>
<path fill-rule="evenodd" clip-rule="evenodd" d="M11.9934 4.16753L12.3307 4.17642L12.6436 4.19265L12.8129 4.20478L13.0814 4.22898L13.2693 4.24963L13.4637 4.27432L13.7662 4.31969L13.9744 4.35601L14.1872 4.3976L14.404 4.44481C14.4404 4.45317 14.477 4.46178 14.5137 4.47064L14.7356 4.52696L14.9601 4.58979L15.1868 4.65948C15.2247 4.67169 15.2627 4.68419 15.3008 4.69701L15.5296 4.77767C15.7207 4.84806 15.9126 4.92653 16.1039 5.01399L16.3331 5.12332C18.3914 6.14724 20.3125 8.26346 20.3125 12.6338C20.3125 16.5138 18.7804 18.5656 17.0602 19.6464L16.8571 19.7691C16.6532 19.8874 16.4475 19.9928 16.242 20.0866L16.0368 20.1766L15.8322 20.2592L15.6289 20.3347L15.4272 20.4034L15.2276 20.4656L15.0307 20.5217L14.837 20.5719C14.8049 20.5798 14.7731 20.5874 14.7414 20.5949L14.5532 20.6369L14.3694 20.6738L14.1028 20.7203L13.932 20.7459L13.6872 20.7769L13.5324 20.793L13.3139 20.8113L13.0509 20.8263L12.8769 20.8318L12.6649 20.8334L12.4888 20.8298L12.3616 20.8235L6.68412 20.8225V13.4035H4.6875V11.5861H6.68397V4.16669L11.9934 4.16753ZM12.1091 7.24532H9.87441V11.586H13.3902V13.4034H9.87441V17.7438L12.2993 17.7438L12.5451 17.7391L12.8224 17.7228L13.0152 17.7043L13.2249 17.6773L13.3729 17.6537L13.5265 17.6252L13.685 17.5913C13.7118 17.5851 13.7388 17.5788 13.7659 17.5721L13.9305 17.5291L14.0981 17.4795C14.1826 17.4529 14.268 17.4237 14.3538 17.3915L14.526 17.3232L14.6988 17.2466C15.9369 16.6669 17.1602 15.4115 17.1566 12.6938C17.153 9.94338 15.9365 8.57557 14.6822 7.89867L14.507 7.80863C14.4195 7.76579 14.332 7.72615 14.2449 7.68948L14.0717 7.62004L13.9004 7.5581C13.8721 7.54838 13.8438 7.53895 13.8157 7.52982L13.6488 7.47836C13.6212 7.47033 13.5939 7.46257 13.5667 7.45507L13.4056 7.41315L13.2494 7.37706L13.0987 7.3464L12.9543 7.32073L12.8169 7.29965L12.6871 7.28273L12.5083 7.26425L12.4008 7.25592L12.2588 7.24836L12.1091 7.24532Z" fill="white"/>
</svg>
