<svg width="25" height="25" viewBox="0 0 25 25" fill="none" xmlns="http://www.w3.org/2000/svg">
<circle cx="12.5" cy="12.5" r="12.5" fill="#A5A8A9"/>
<path d="M12.7026 12.9112L11.4024 17.2986H18.3569C18.469 17.2989 18.5745 17.3519 18.6417 17.4416C18.7089 17.5314 18.7299 17.6475 18.6986 17.7552L18.0938 19.8385C18.0346 20.043 17.8471 20.1836 17.6342 20.1832H7.01197L8.80805 14.1177L6.82147 14.7224L7.25991 13.3043L9.24951 12.6996L11.7713 4.17875C11.8282 3.97355 12.0149 3.8314 12.2279 3.83103H14.919C15.0309 3.83063 15.1366 3.8828 15.2043 3.97193C15.272 4.06106 15.294 4.17682 15.2637 4.28458L13.1471 11.4901L15.1336 10.8853L14.7073 12.3276L12.7026 12.9112Z" fill="white"/>
</svg>
