<svg width="25" height="25" viewBox="0 0 25 25" fill="none" xmlns="http://www.w3.org/2000/svg">
<g clip-path="url(#clip0_261_797)">
<path d="M2 6.00635L4.93576 10.9849V14.0217L2.00343 18.9904L2 6.00635Z" fill="#5B57A2"/>
<path d="M13.2721 9.17324L16.023 7.57359L21.6529 7.5686L13.2721 12.4396V9.17324Z" fill="#D90751"/>
<path d="M13.2565 5.97701L13.2721 12.5684L10.3295 10.853V1L13.2565 5.97701Z" fill="#FAB718"/>
<path d="M21.6529 7.56861L16.0228 7.57359L13.2565 5.97701L10.3295 1L21.6529 7.56861Z" fill="#ED6F26"/>
<path d="M13.2721 19.018V15.8201L10.3295 14.1372L10.3311 24L13.2721 19.018Z" fill="#63B22F"/>
<path d="M16.0162 17.4329L4.93556 10.9849L2 6.00635L21.641 17.4264L16.0162 17.4329Z" fill="#1487C9"/>
<path d="M10.3313 24L13.2719 19.018L16.0159 17.4329L21.6408 17.4264L10.3313 24Z" fill="#017F36"/>
<path d="M2.00342 18.9904L10.3535 14.1374L7.54625 12.5033L4.93574 14.0216L2.00342 18.9904Z" fill="#984995"/>
</g>
<defs>
<clipPath id="clip0_261_797">
<rect width="20" height="23" fill="white" transform="translate(2 1)"/>
</clipPath>
</defs>
</svg>
