<svg width="25" height="25" viewBox="0 0 25 25" fill="none" xmlns="http://www.w3.org/2000/svg">
<g clip-path="url(#clip0_261_760)">
<path d="M10.0207 18.3554C10.0207 18.3554 10.3247 18.2249 10.3523 18.1306L10.3109 18.0248C10.2825 17.9551 10.286 17.8797 10.342 17.8391L10.6694 17.6005L11.2173 17.7115C11.2173 17.7115 11.1178 17.5809 11.1275 17.4069L10.6052 17.2909L10.1119 17.6063C10.0258 17.6733 9.96361 17.7686 9.93518 17.8771C9.90675 17.9855 9.91375 18.1008 9.95506 18.2046L10.0207 18.3562L10.0207 18.3554ZM13.8943 19.858C13.9917 19.8536 14.1009 19.8522 14.219 19.8522C14.219 19.8522 14.5009 18.9856 14.5168 18.9581C14.3075 18.8555 14.1032 18.742 13.9047 18.6179C13.9883 18.7499 14.1914 18.9 14.1513 19.0161L13.8943 19.858ZM14.0622 9.74816C13.6435 10.1847 13.2421 10.3464 12.8835 10.3841C12.8179 10.3916 12.752 10.3955 12.686 10.3957H12.677C12.5451 10.3957 12.4135 10.3811 12.2845 10.3522C12.261 10.4501 12.2313 10.6554 12.3163 10.8497C12.3923 11.0259 12.5464 11.1572 12.7716 11.2449L12.8476 11.2761L12.8483 11.3617C12.8483 11.3871 12.8663 11.9425 13.4425 12.097C13.5364 11.9955 13.6221 11.9034 13.6843 11.8258C13.5669 11.535 13.629 11.2377 13.7997 11.0919C13.7928 11.1231 13.7168 11.8519 14.2729 12.1231L14.3648 12.1688L14.3372 12.271C14.3282 12.3022 14.143 13.0078 14.8166 13.2703L14.9355 13.3182L14.8823 13.4393C14.8705 13.4661 14.6066 14.1065 15.2284 14.4705H16.5763V13.3443C16.0969 13.2827 15.8944 12.8773 15.8419 12.5901C15.6187 12.5502 15.4467 12.4494 15.3286 12.2848C15.0453 11.8932 15.2885 11.5343 15.292 11.5147C15.2913 11.5176 15.292 11.899 15.5158 12.1354C15.627 12.2485 15.7583 12.337 15.958 12.3566L16.0554 12.366L16.0637 12.4712C16.0658 12.4937 16.119 13.0107 16.5763 13.0919L16.5756 10.7931C16.5756 10.4363 16.6744 10.0781 16.7933 9.74742H14.0621L14.0622 9.74816ZM10.4331 10.8018L10.3971 12.2652L10.556 12.2914L10.943 10.8867L10.7461 10.4545L10.4338 10.8018H10.4331ZM11.2718 16.2218C11.2612 16.2214 11.2507 16.2188 11.2411 16.2141C11.2315 16.2093 11.2229 16.2026 11.2158 16.1942C11.2088 16.1859 11.2034 16.1761 11.2001 16.1655C11.1968 16.1549 11.1955 16.1437 11.1965 16.1326C11.1971 16.1216 11.1998 16.1109 11.2044 16.101C11.209 16.0911 11.2155 16.0823 11.2234 16.075C11.2313 16.0678 11.2406 16.0623 11.2505 16.0589C11.2605 16.0554 11.271 16.0541 11.2815 16.055C11.3271 16.0572 11.3588 16.0985 11.3575 16.1435C11.3559 16.1657 11.346 16.1864 11.33 16.2011C11.3139 16.2158 11.293 16.2232 11.2718 16.2218ZM14.6998 17.5177C14.7116 17.5177 14.7254 17.5191 14.7378 17.5228C14.9796 17.5953 15.0397 18.5075 15.4619 18.5888C15.5033 18.5982 15.542 18.6004 15.5752 18.6004C15.6974 18.6004 15.77 18.546 15.8487 18.4481C15.8487 18.4481 15.636 18.0978 15.477 17.8607C15.2663 17.5503 15.1026 17.1754 14.7095 17.1754C14.6998 17.1754 14.6887 17.1754 14.6784 17.1769C14.6035 17.18 14.5311 17.2057 14.4697 17.2508C14.3385 17.1597 14.1849 17.1106 14.0276 17.1094C13.7823 17.1094 13.5902 17.2283 13.4942 17.2283H13.4907L12.6133 17.137C12.4758 17.1225 12.3673 16.9774 12.328 16.9209L12.3128 16.8962C12.3128 16.8708 12.3128 16.8455 12.3114 16.823C12.2817 16.0681 11.7262 15.7454 11.5279 15.7396C11.5279 15.7396 11.5514 15.596 11.4982 15.5416L11.3048 15.7881L10.6692 15.4531L11.1224 16.0101L10.7389 16.4633C10.6906 16.5148 10.6968 16.5844 10.7168 16.6141L10.8826 16.7679L11.0927 16.6337C11.103 16.6257 11.1224 16.6228 11.1459 16.6228C11.2039 16.6228 11.291 16.6388 11.369 16.6388C11.4554 16.6388 11.5293 16.6199 11.5383 16.5351C11.512 16.815 11.2647 17.3016 11.4271 17.6838L11.5473 17.9724L10.7714 17.8549L10.408 18.4996C10.2961 18.7143 10.2781 18.9463 10.3859 19.0725L10.522 19.2516C10.522 19.2516 10.7127 19.0391 10.7548 18.8992L10.6933 18.8281C10.6415 18.7679 10.6443 18.7142 10.6761 18.6497L10.9041 18.2523L11.8195 18.4793L11.8678 18.3923C11.93 18.2835 12.0198 18.2516 12.118 18.2516C12.1587 18.2516 12.2002 18.2566 12.243 18.2639C12.413 18.2994 12.6928 18.3466 12.9726 18.3466C13.28 18.3466 13.5847 18.2886 13.7471 18.0978C14.0787 18.6149 14.7516 18.6968 14.6984 18.9601L14.5216 19.8462C14.639 19.8404 14.7516 19.8324 14.8587 19.8172L15.0273 18.8955C15.041 18.8173 15.0529 18.7387 15.0632 18.6598C14.9983 18.5902 14.8414 18.4445 14.7523 18.2668C14.6342 18.0268 14.6984 17.9013 14.5879 17.5895C14.5879 17.5895 14.6224 17.517 14.6998 17.517L14.6998 17.5177ZM22.8253 14.5009C22.1137 14.1311 21.6646 13.1521 21.5555 12.7996C21.438 14.7416 20.5364 16.0889 19.4828 17.3855C18.9356 18.0585 18.745 18.7126 18.745 18.7126C18.745 18.7126 18.8507 17.9715 19.3232 17.3681C20.3063 16.1266 21.2404 14.5804 21.3102 12.7921C21.3579 11.5448 21.0532 10.5332 20.5765 9.69944C20.8432 10.5675 20.8052 11.6313 19.9008 12.6239C19.9008 12.6239 21.7019 10.3556 19.1844 8.0292C18.177 7.14449 17.0744 6.59769 16.5071 6.21044C18.557 6.91387 19.5586 6.13938 19.5586 6.13938C18.9037 6.73618 18.056 6.72604 17.5302 6.63975C17.6732 6.71299 17.8218 6.78986 17.9807 6.87906C19.7099 7.86675 21.2633 9.4918 21.5286 11.7413V11.7239C21.9299 13.9335 22.8253 14.5005 22.8253 14.5005L22.8253 14.5009ZM23.3518 11.9264C23.3677 11.9279 23.3815 11.9279 23.3974 11.9279C24.3612 11.9279 24.6873 10.8423 24.6873 10.8423H24.6686C24.4918 10.8423 23.0589 10.7988 22.0459 9.44487C21.3799 8.5551 20.8334 7.7726 19.7541 7.46513L19.6477 7.44482L19.6249 7.33097C19.5952 7.15765 19.7078 6.9952 19.9648 6.82046C21.4537 5.79507 20.4415 4.48685 20.4415 4.48685C20.4415 4.48685 20.0174 5.53255 19.066 5.53255L18.9948 5.53109C18.887 5.52529 18.7827 5.52167 18.6777 5.49773L18.5022 5.46148C18.5022 5.46148 18.7737 4.68553 18.1188 3.97414C17.6262 3.43605 17.0258 3.34469 16.6797 3.34469C16.5049 3.34469 16.3943 3.36862 16.3943 3.36862C16.7232 3.82039 16.9608 4.57096 16.5809 5.03363C16.2527 5.43104 15.4513 5.45062 15.4513 6.04381C15.4513 6.29473 15.6744 6.5877 16.0751 6.85093C17.28 7.64863 18.4759 8.70738 18.9733 10.1264C19.5951 11.8958 18.8945 13.0706 17.8955 13.7443C17.8955 13.7443 18.2092 14.0474 18.6631 14.0866C18.7557 14.096 18.8462 14.1004 18.9305 14.1004C19.8901 14.1004 20.3862 13.6268 20.3862 13.6268C20.3862 13.6268 20.304 14.2809 19.8058 14.8879C19.3443 15.4477 18.7398 15.7784 17.8174 15.7922C17.8174 15.7922 17.7884 16.2418 18.1967 16.6319C18.4586 16.8778 19.0617 16.9583 19.0617 16.9583C19.0617 16.9583 17.9315 17.1983 17.8064 18.9539C17.7387 19.9054 17.5079 20.2353 17.5079 20.2353H17.528C20.1507 20.2353 20.0835 17.8698 20.0835 17.8698C20.0835 17.8698 20.2659 18.5703 20.9976 18.7531C21.086 18.7777 21.1807 18.7872 21.2705 18.7872C21.5054 18.7872 21.7106 18.7291 21.7106 18.7291C21.7106 18.7291 21.3271 17.8792 21.7071 16.6907C22.0229 15.7037 21.9717 14.9727 21.9717 14.9727C21.9717 14.9727 22.3248 15.5348 23.2015 15.5399H23.2105C23.4176 15.5432 23.6222 15.4917 23.8052 15.39C23.9883 15.2884 24.144 15.1399 24.2579 14.9583C22.5093 14.1946 22.682 11.7311 22.682 11.7311C22.682 11.7311 22.9086 11.9095 23.3515 11.9269L23.3518 11.9264ZM5.87982 17.3857C4.82623 16.089 3.9246 14.7417 3.80578 12.7998C3.69731 13.1529 3.24893 14.1319 2.53802 14.5011C2.53802 14.5011 3.43204 13.934 3.83342 11.7245V11.7419C4.09941 9.49243 5.65253 7.86741 7.38182 6.88045C7.54072 6.7898 7.68996 6.71366 7.8316 6.64114C7.30651 6.72671 6.45812 6.73686 5.80385 6.14077C5.80385 6.14077 6.80563 6.91453 8.8546 6.21111C8.28807 6.59835 7.18541 7.14513 6.17863 8.02986C3.66045 10.3562 5.4615 12.6246 5.4615 12.6246C4.55643 11.6311 4.51912 10.5687 4.7858 9.7001C4.30909 10.5341 4.00372 11.5457 4.05346 12.7938C4.12186 14.5814 5.05523 16.1273 6.03632 17.3698C6.51165 17.9717 6.61873 18.7129 6.61873 18.7129C6.61873 18.7129 6.42528 18.0595 5.87948 17.3865L5.87982 17.3857ZM6.30127 16.9578C6.30127 16.9578 6.90444 16.878 7.16626 16.6315C7.57389 16.2421 7.54557 15.7925 7.54557 15.7925C6.62255 15.7787 6.01871 15.448 5.5551 14.8882C5.05905 14.2812 4.97614 13.6271 4.97614 13.6271C4.97614 13.6271 5.4722 14.1006 6.43047 14.1006C6.51683 14.1006 6.60665 14.0963 6.69854 14.0869C6.98208 14.0567 7.25034 13.9374 7.46819 13.7446C6.46778 13.0709 5.76724 11.8961 6.38834 10.1259C6.88578 8.70819 8.08102 7.64877 9.2875 6.85041C9.68752 6.58789 9.90998 6.29492 9.90998 6.04402C9.90998 5.45083 9.10994 5.43125 8.78178 5.03384C8.4018 4.57117 8.64015 3.82063 8.96832 3.36883C8.96832 3.36883 8.85847 3.3449 8.68299 3.3449C8.33753 3.3449 7.73717 3.43627 7.24386 3.97436C6.58751 4.6865 6.86041 5.46242 6.86041 5.46242L6.68493 5.49868C6.5806 5.52116 6.4749 5.52551 6.36712 5.53203L6.29803 5.53276C5.34461 5.53276 4.92108 4.4878 4.92108 4.4878C4.92108 4.4878 3.91031 5.79528 5.39915 6.82067C5.65476 6.99544 5.76739 7.15862 5.73767 7.33118L5.71487 7.44431L5.6064 7.46461C4.5293 7.77282 3.98281 8.55529 3.31551 9.44508C2.30266 10.799 0.871244 10.8425 0.693539 10.8425H0.674194C0.674194 10.8425 1.00097 11.9281 1.96546 11.9281C1.98066 11.9281 1.99448 11.9281 2.01106 11.9267C2.45391 11.91 2.68123 11.7316 2.68123 11.7316C2.68123 11.7316 2.85257 14.1949 1.10463 14.9587C1.10463 14.9587 1.42313 15.541 2.15273 15.541H2.16102C3.03844 15.5352 3.39081 14.9732 3.39081 14.9732C3.39081 14.9732 3.33968 15.7049 3.65402 16.6911C4.034 17.8804 3.65263 18.7289 3.65263 18.7289C3.65263 18.7289 3.85644 18.7869 4.09204 18.7869C4.18323 18.7869 4.2765 18.7782 4.36424 18.7535C5.0952 18.5708 5.27828 17.8703 5.27828 17.8703C5.27828 17.8703 5.21126 20.2358 7.83436 20.2358H7.8537C7.8537 20.2358 7.62364 19.9058 7.55663 18.9544C7.43227 17.1995 6.30059 16.958 6.30059 16.958L6.30127 16.9578ZM12.0889 8.24104H13.3256V8.68702C13.1805 8.49993 12.8973 8.53836 12.8973 8.53836V9.1816C12.8973 9.1816 12.9069 9.49779 13.0133 9.63483H12.4012C12.5083 9.49777 12.5173 9.1816 12.5173 9.1816V8.53836C12.5173 8.53836 12.2354 8.49993 12.0889 8.68702L12.0889 8.24104ZM10.7417 8.30776C10.7845 8.35635 10.8267 8.40928 10.8674 8.46222C10.8771 8.47455 10.8861 8.48543 10.8958 8.49993C10.9338 8.55215 10.9718 8.60871 11.0084 8.66527L11.0333 8.70371C11.0768 8.77332 11.1182 8.84512 11.1597 8.91981C11.5383 9.60655 12.1435 10.017 12.6803 10.0177C13.2186 10.017 13.8231 9.60655 14.2024 8.91981C14.2445 8.84367 14.2867 8.7697 14.3309 8.70008C14.3813 8.61897 14.4353 8.54033 14.4925 8.4644C14.5347 8.40928 14.5782 8.35562 14.6224 8.30631C14.63 8.29906 14.6362 8.29108 14.6438 8.28455C14.8373 8.07715 15.066 7.91907 15.3672 7.83132L15.2332 7.74938H15.2263L14.6929 7.42448L14.1464 7.09452L12.6845 7.93138L12.6803 7.92775L12.6783 7.93138L11.2164 7.09452L10.6692 7.42448L10.1358 7.74938H10.1296L9.99487 7.83132C10.2954 7.91834 10.5248 8.07499 10.7182 8.2831C10.7265 8.29035 10.732 8.30051 10.7417 8.30776ZM12.6803 3.07786C11.7753 3.07859 11.0961 3.39041 10.9483 3.75807L12.6803 4.47601L14.4131 3.75807C14.2666 3.39041 13.5875 3.07859 12.6803 3.07786ZM12.699 22.1057H12.6644C12.1159 22.1093 11.3593 21.9911 10.9959 21.8787L10.5579 23.1253C10.8467 23.2334 11.825 23.4408 12.6824 23.4408C13.5384 23.4408 14.5174 23.2334 14.8055 23.1253L14.3682 21.8794C14.0027 21.9911 13.2476 22.1093 12.699 22.1057ZM16.013 20.8656C15.6869 21.06 14.9595 21.3515 14.5359 21.4864L14.891 22.5161C15.546 22.3276 16.087 22.1078 16.5333 21.8721L15.7954 21.6147L16.013 20.8656ZM9.3495 20.8656L9.56782 21.6147L8.82926 21.8722C9.27488 22.1079 9.8179 22.3276 10.4708 22.5154L10.8266 21.4857C10.4038 21.3508 9.67491 21.06 9.3495 20.8656ZM12.6802 1.88641C13.3635 1.88641 14.0322 2.05828 14.5476 2.35922C14.5946 2.19388 14.6602 1.99228 14.7494 1.78127L14.5545 1.80592L14.3507 1.82768L14.2644 1.6326L14.0032 1.05465L13.5293 1.31427L13.3441 1.4129L13.1962 1.26061L12.6802 0.723969L12.1654 1.26061L12.0183 1.4129L11.8338 1.31427L11.3571 1.05465L11.0994 1.6326L11.0117 1.8284L10.8072 1.80592L10.6137 1.78127C10.7028 1.99229 10.7678 2.19391 10.8155 2.35922C11.3323 2.05827 12.001 1.88641 12.6809 1.88641H12.6802ZM23.1022 8.57049C23.1913 8.6024 23.2811 8.6169 23.3702 8.6169C23.7571 8.6169 24.1302 8.35365 24.258 8.05343C24.258 8.05343 23.5499 8.00847 22.7885 7.19553C22.5467 6.93301 22.2897 6.85397 22.07 6.85397C21.728 6.85397 21.471 7.04324 21.471 7.04324C22.3912 7.55812 22.5785 8.38485 23.1022 8.57049ZM1.99212 8.61618C2.08194 8.61618 2.17175 8.6024 2.25811 8.56976C2.7832 8.38412 2.97249 7.55813 3.89067 7.04398C3.89067 7.04398 3.63367 6.85398 3.29374 6.85398C3.07266 6.85398 2.81634 6.9323 2.57314 7.19627C1.81248 8.00846 1.10498 8.05417 1.10498 8.05417C1.23211 8.35366 1.60587 8.61691 1.9921 8.61691L1.99212 8.61618ZM12.2152 5.40596V5.82656L12.1385 5.78885C12.1351 5.78595 12.0218 5.75984 11.8262 5.59595C11.5022 5.33197 11.496 5.08833 11.496 5.08833L12.2145 5.40597L12.2152 5.40596ZM12.5537 7.37626V4.76404L10.973 4.19984L11.3903 6.73079L12.5544 7.37621L12.5537 7.37626ZM13.1479 5.40596L13.8664 5.08832C13.8664 5.08832 13.8609 5.33198 13.5355 5.59594C13.34 5.7591 13.2273 5.78594 13.2239 5.78884L13.1479 5.82582L13.1479 5.40596ZM13.9721 6.73159L14.3874 4.20065L12.8073 4.76412V7.37634L13.9721 6.73092L13.9721 6.73159ZM10.318 13.4315C10.472 13.4895 10.6586 13.5019 10.7546 13.5019C10.7581 13.4895 10.7636 13.4743 10.7684 13.4555C10.776 13.4265 10.7843 13.396 10.7905 13.3641C10.8175 13.2191 10.8265 13.0559 10.8292 12.95C10.7409 12.8949 10.6689 12.815 10.6213 12.7194C10.5625 12.5896 10.4789 12.5287 10.3567 12.5287C10.1978 12.5287 10.0271 12.6302 9.95321 12.6766C9.89517 13.0378 10.1487 13.3655 10.318 13.4308L10.318 13.4315ZM13.8151 12.0457C13.5222 12.3815 12.9466 12.9667 12.919 12.9957L12.8845 13.0319L11.0674 13.0022C11.0659 13.16 11.0464 13.317 11.0094 13.4699L10.9949 13.5301L13.1553 13.9391C13.3798 13.7738 13.9981 13.2988 14.2386 13.1124C14.0638 12.8441 14.0472 12.5258 14.0866 12.3024C13.9829 12.2336 13.8911 12.1468 13.8151 12.0457Z" fill="#FFFFFE"/>
<path d="M16.5765 14.7186H8.78661V17.7998C8.78661 19.0602 9.65368 19.8484 10.9339 19.8484C12.0027 19.8484 12.2845 19.892 12.6818 20.3075C12.9561 20.0196 13.1827 19.913 13.6491 19.8724L13.6594 19.8252L13.9047 19.0268C13.8909 19.0087 13.4902 18.5294 13.4902 18.5294C13.3313 18.5852 13.1972 18.5946 12.972 18.5946C12.7419 18.5946 12.4815 18.5656 12.1989 18.5105C12.1724 18.5039 12.1453 18.5005 12.1181 18.5003C12.0835 18.5003 12.0814 18.5033 12.0718 18.5214L12.0234 18.6062L11.9336 18.7614L11.7657 18.7201L11.0182 18.5352L10.9152 18.7128L10.9311 18.7324L11.0216 18.8376L10.9815 18.9753C10.9263 19.1545 10.748 19.364 10.6934 19.422L10.5069 19.6323L10.3362 19.4068L10.2084 19.2378C10.0737 19.0798 10.0426 18.8376 10.1186 18.5837C10.1164 18.5854 10.1138 18.5865 10.111 18.5866L9.90029 18.6787L9.80564 18.4612L9.73862 18.3082C9.6743 18.1516 9.66272 17.9767 9.7058 17.8123C9.74888 17.648 9.84405 17.5039 9.9756 17.4039L10.5767 17.0464L11.1501 17.1646C11.1639 17.1066 11.1847 16.9006 11.2006 16.8477C11.1895 16.8462 11.1791 16.8441 11.1681 16.8441L10.8379 16.9731L10.52 16.7425C10.52 16.7425 10.3957 16.6164 10.5083 16.4902L10.8158 15.9992L10.0351 14.9695L11.2351 15.4872L11.3153 15.3835L11.4769 15.179L11.6607 15.3632C11.709 15.4128 11.7426 15.476 11.7574 15.5453C12.0877 15.6809 12.6805 16.0804 12.733 16.7302L12.5478 16.8078V16.8128C12.59 16.8658 12.6252 16.8875 12.6363 16.8897L13.4929 16.9782C13.5151 16.9738 13.5413 16.9637 13.5717 16.955C13.6788 16.9165 13.8384 16.8607 14.0277 16.8607C14.1825 16.8607 14.3317 16.8984 14.4747 16.9695C14.5279 16.9477 14.5922 16.9325 14.6682 16.9274L14.7096 16.926C15.1677 16.926 15.3957 17.2864 15.5787 17.5743C15.6091 17.6243 15.6395 17.6707 15.6713 17.7171C15.8316 17.955 16.041 18.3023 16.0493 18.3176L16.1439 18.472L16.0278 18.6142C15.9394 18.7229 15.8047 18.8498 15.5753 18.8498C15.5233 18.8494 15.4715 18.8438 15.4205 18.8332C15.3735 18.8237 15.3277 18.8089 15.2837 18.7889C15.2767 18.8401 15.2686 18.8911 15.2596 18.9419L15.1096 19.7664C16.0078 19.5344 16.5785 18.8208 16.5785 17.7998L16.5765 14.7186ZM8.78661 14.4705H14.8458C14.5431 14.1413 14.548 13.7258 14.6247 13.4553C14.5429 13.4141 14.4669 13.3614 14.3987 13.2987C14.1618 13.4821 13.4391 14.0354 13.2505 14.1747L13.2097 14.2037L10.8317 13.7512H10.7833C10.7267 13.7512 10.6431 13.749 10.5519 13.7367C10.5421 13.7825 10.5199 13.8244 10.4879 13.8572C10.456 13.8901 10.4156 13.9125 10.3717 13.9218C10.3279 13.9311 10.2824 13.9268 10.2408 13.9095C10.1992 13.8923 10.1633 13.8627 10.1373 13.8244C10.1191 13.7983 10.1061 13.7686 10.099 13.7371C10.0918 13.7056 10.0908 13.6729 10.0959 13.6409L10.1049 13.5865C9.86028 13.4052 9.63301 12.9991 9.73385 12.5713L9.74352 12.5263L9.77807 12.5002C9.81293 12.4752 9.8489 12.452 9.88585 12.4306L9.71313 12.4016C9.68245 12.3961 9.65504 12.3782 9.63672 12.3518C9.6184 12.3254 9.61061 12.2925 9.61502 12.2602C9.62608 12.192 9.68618 12.1442 9.75043 12.1565L10.1615 12.2247L10.1995 10.7011L10.8116 10.0194L11.1944 10.8657L10.7909 12.332L11.1543 12.3922C11.1854 12.3975 11.2131 12.4156 11.2315 12.4423C11.2499 12.4691 11.2574 12.5024 11.2524 12.535C11.248 12.5639 11.2338 12.5902 11.2126 12.6091C11.1913 12.6279 11.1642 12.6382 11.1364 12.638L11.1177 12.6373L10.8213 12.5865C10.8255 12.5967 10.831 12.6017 10.8351 12.6119C10.8681 12.6719 10.9178 12.72 10.9775 12.7497L12.7896 12.7809C12.8663 12.7018 13.0563 12.506 13.2526 12.2986C13.0818 12.2328 12.9318 12.1184 12.8196 11.9681C12.7073 11.8179 12.6371 11.6377 12.6169 11.448C12.3682 11.3363 12.1955 11.1695 12.1002 10.952C11.9841 10.6822 12.0255 10.4124 12.0566 10.2812C11.8148 10.1891 11.5606 10.0194 11.3008 9.7482H8.57056C8.68801 10.0789 8.7868 10.4371 8.7868 10.7932V14.4698L8.78661 14.4705Z" fill="#FFE52B"/>
<path d="M12.6816 4.47715L10.9495 3.75776C11.0967 3.39082 11.7758 3.079 12.6816 3.07827C13.588 3.079 14.2672 3.39082 14.4143 3.75776L12.6816 4.47715ZM13.9728 6.73171L12.8087 7.37714V4.76362L14.3888 4.19942L13.9729 6.73036L13.9728 6.73171ZM14.6941 7.42498L15.2261 7.74987H15.2337L15.3678 7.83182C15.0672 7.91884 14.8372 8.07766 14.6444 8.28505L14.6237 8.3068C14.5782 8.35771 14.5347 8.41045 14.4931 8.46489L14.4689 8.49825C14.4275 8.55409 14.3881 8.61138 14.3515 8.67084L14.3314 8.70057C14.2866 8.77238 14.244 8.84566 14.2036 8.9203C13.8236 9.60704 13.2191 10.0175 12.6816 10.019C12.1441 10.0175 11.5389 9.60704 11.1603 8.9203C11.12 8.84706 11.0778 8.775 11.0338 8.7042L11.009 8.66576C10.9728 8.60977 10.9355 8.55464 10.897 8.50043C10.8874 8.48592 10.8784 8.47504 10.8687 8.46272C10.8281 8.40982 10.786 8.35831 10.7423 8.30825C10.7333 8.301 10.7271 8.29157 10.7188 8.2836C10.5214 8.06663 10.2713 7.91041 9.99543 7.83182L10.1308 7.74988H10.1364L10.6704 7.42498L11.2169 7.09501L12.6788 7.93188L12.6816 7.92897L12.6857 7.93188L14.147 7.09501L14.6941 7.42498ZM16.7944 9.74844C16.6749 10.0791 16.5761 10.4374 16.5761 10.7934L16.5775 13.0922C16.1208 13.0125 16.0662 12.4947 16.0649 12.4722L16.0566 12.3671L15.9578 12.3576C15.7902 12.3421 15.6337 12.2636 15.517 12.1364C15.2924 11.9008 15.2924 11.5193 15.2924 11.5157C15.2897 11.5353 15.0465 11.8928 15.3284 12.2844C15.4472 12.4497 15.6199 12.552 15.8424 12.5919C15.8949 12.8783 16.098 13.2837 16.5775 13.346V14.4701H15.2296C14.6078 14.1068 14.871 13.4672 14.8835 13.4396L14.936 13.3178L14.8171 13.2706C14.1435 13.0081 14.3294 12.3018 14.3384 12.2714L14.366 12.1684L14.2734 12.1234C13.718 11.8522 13.7933 11.1227 13.8009 11.0922C13.6295 11.238 13.568 11.5346 13.6855 11.8268C13.6219 11.9037 13.5363 11.9958 13.443 12.0973C13.2807 12.0601 13.1346 11.9679 13.0272 11.8349C12.9198 11.7018 12.8571 11.5354 12.8488 11.3613L12.8481 11.2757L12.7721 11.2452C12.5476 11.1582 12.3935 11.0262 12.3168 10.85C12.2318 10.6549 12.2615 10.4512 12.285 10.3518C12.4141 10.3799 12.5456 10.3945 12.6775 10.3953H12.6864C12.7535 10.3953 12.8191 10.391 12.884 10.3845C13.2433 10.3467 13.644 10.185 14.0627 9.74847L16.7944 9.74844ZM15.11 19.7668L15.2606 18.9422L15.2848 18.79C15.3778 18.8282 15.4765 18.8486 15.5764 18.8502C15.8058 18.8502 15.9398 18.7225 16.0289 18.6145L16.1436 18.4731L16.0496 18.3179C16.0414 18.3026 15.832 17.9553 15.6717 17.7174C15.6399 17.6704 15.6092 17.6226 15.5798 17.5738C15.3967 17.2867 15.1681 16.9263 14.7093 16.9263L14.6686 16.9277C14.6025 16.9314 14.5373 16.9454 14.4751 16.969C14.3355 16.899 14.1828 16.8623 14.0281 16.8617C13.8724 16.8657 13.7185 16.897 13.5728 16.9545C13.5424 16.964 13.5147 16.9741 13.4933 16.9785L12.6366 16.89C12.6256 16.8871 12.591 16.8654 12.5482 16.8131V16.8081L12.7334 16.7305C12.6815 16.0807 12.0881 15.6811 11.7578 15.5455C11.7432 15.4761 11.7096 15.4126 11.6611 15.3628L11.4773 15.1793L11.3157 15.3831L11.2362 15.4875L10.0354 14.969L10.8161 15.9995L10.5087 16.4905C10.3954 16.6159 10.5204 16.7428 10.5204 16.7428L10.8382 16.9734L11.1685 16.8436C11.1795 16.8436 11.1892 16.8465 11.2009 16.848C11.1851 16.9009 11.1643 17.1076 11.1505 17.1649L10.5778 17.0467L9.97668 17.4042C9.66646 17.6435 9.62435 18.038 9.7397 18.3085L9.80603 18.4622L9.90068 18.679L10.1114 18.5877C10.1149 18.5862 10.1176 18.5855 10.1197 18.5833C10.0437 18.8379 10.0748 19.0793 10.2095 19.2381L10.3373 19.4071L10.5073 19.6334L10.6938 19.4223C10.7491 19.3643 10.9273 19.1547 10.9819 18.9749L11.022 18.8378L10.9315 18.7327L10.9163 18.7131L11.0185 18.5355L11.7661 18.7211L11.9347 18.7617L12.0245 18.6058L12.0728 18.5217C12.0818 18.5035 12.0839 18.5006 12.1184 18.5006C12.1454 18.5006 12.1716 18.5035 12.2 18.5108C12.4549 18.5636 12.7139 18.5915 12.9738 18.5942C13.1969 18.5942 13.3316 18.5855 13.4905 18.5297C13.4905 18.5297 13.8919 19.0083 13.9058 19.0271L13.6598 19.8248L13.6487 19.8727C13.1838 19.9126 12.9572 20.0199 12.6829 20.3078C12.2849 19.893 12.0037 19.8488 10.9349 19.8488C9.65474 19.8488 8.78698 19.0605 8.78698 17.7994V14.7189H16.5773L16.5787 17.7994C16.5787 18.8212 16.0082 19.534 15.11 19.7668ZM10.3117 18.0249L10.3525 18.1315C10.3248 18.2243 10.0208 18.3563 10.0208 18.3563L9.9559 18.2047C9.91442 18.1009 9.90733 17.9854 9.93576 17.8768C9.9642 17.7682 10.0265 17.6728 10.1127 17.6057L10.6053 17.2903L11.1283 17.4063C11.118 17.5811 11.2175 17.7116 11.2175 17.7116L10.6703 17.6014L10.3421 17.8392C10.2868 17.8799 10.2827 17.9553 10.3117 18.0249ZM15.0271 18.8951L14.8592 19.8168C14.7514 19.8328 14.6381 19.8415 14.522 19.8458L14.6989 18.9611C14.7514 18.6971 14.0799 18.6152 13.7475 18.0981C13.5852 18.2896 13.2805 18.3469 12.9737 18.3469C12.6932 18.3469 12.4141 18.2998 12.2435 18.2642C12.2024 18.2567 12.1608 18.2526 12.1191 18.2519C12.0203 18.2519 11.9312 18.2838 11.869 18.3933L11.8206 18.4803L10.9045 18.2533L10.6765 18.65C10.6447 18.7146 10.642 18.7682 10.6938 18.8284L10.756 18.8995C10.7131 19.0394 10.5224 19.2519 10.5224 19.2519L10.3863 19.0728C10.2786 18.9466 10.2965 18.7146 10.4085 18.4999L10.7719 17.8545L11.5477 17.9727L11.4275 17.6834C11.2652 17.3012 11.5125 16.8153 11.5387 16.5354C11.5298 16.6203 11.4558 16.6391 11.3702 16.6391C11.2914 16.6391 11.2044 16.6239 11.1463 16.6239C11.1235 16.6239 11.1035 16.6261 11.0931 16.634L10.8831 16.7682L10.7173 16.6145C10.6972 16.5854 10.691 16.5151 10.7394 16.4629L11.1235 16.0104L10.6703 15.4534L11.3045 15.7892L11.4987 15.5419C11.5519 15.597 11.5284 15.7399 11.5284 15.7399C11.7267 15.7457 12.2828 16.0684 12.3118 16.8226C12.3139 16.8458 12.3139 16.8712 12.3139 16.8966L12.3284 16.9212C12.3678 16.9785 12.4763 17.1243 12.6138 17.1373L13.4912 17.2287H13.4946C13.5914 17.2287 13.7828 17.1098 14.028 17.1098C14.1627 17.1098 14.3113 17.146 14.4702 17.2512C14.4702 17.2512 14.5503 17.1844 14.6795 17.1772C14.6892 17.1757 14.7003 17.1757 14.7092 17.1757C15.103 17.1757 15.2668 17.5499 15.4782 17.861C15.6371 18.0974 15.8492 18.4484 15.8492 18.4484C15.7711 18.5463 15.6979 18.6007 15.5756 18.6007C15.5376 18.6009 15.4996 18.597 15.4623 18.5891C15.0409 18.5072 14.9794 17.5956 14.739 17.5231C14.7263 17.5196 14.7133 17.5179 14.7003 17.518C14.6229 17.518 14.589 17.5905 14.589 17.5905C14.6996 17.9017 14.6346 18.0271 14.7535 18.2671C14.8419 18.4448 14.9987 18.5906 15.0637 18.6602C15.0637 18.6602 15.0464 18.7951 15.0271 18.8959L15.0271 18.8951ZM14.2194 19.8523C14.102 19.8523 13.9928 19.8538 13.8947 19.8581L14.1517 19.0162C14.1918 18.8994 13.9886 18.7493 13.905 18.6174C14.0315 18.7015 14.3596 18.8856 14.5179 18.9582C14.4153 19.2551 14.3158 19.5532 14.2194 19.8523ZM10.3973 12.2655L10.4339 10.8021L10.7462 10.4548L10.9424 10.887L10.5555 12.2916L10.3966 12.2662L10.3973 12.2655ZM10.6218 12.7195C10.6693 12.8148 10.741 12.8944 10.8291 12.9494C10.8267 13.0885 10.814 13.2271 10.7911 13.3642C10.7842 13.3961 10.7773 13.4258 10.7683 13.4555C10.7642 13.4744 10.7586 13.4896 10.7552 13.502C10.6591 13.502 10.4719 13.4896 10.3192 13.4309C10.1493 13.3656 9.89571 13.0378 9.95442 12.6767C10.0277 12.6296 10.1976 12.5288 10.3572 12.5288C10.4795 12.5288 10.5631 12.5897 10.6218 12.7195ZM14.2393 13.1125C13.9996 13.2989 13.3806 13.7739 13.156 13.9392L10.9949 13.5302L11.0101 13.47C11.0378 13.3518 11.0675 13.1908 11.0689 13.0016L12.8852 13.032L12.9198 12.9958C12.9474 12.9668 13.5229 12.3815 13.8159 12.0458C13.8856 12.1379 13.9727 12.2249 14.0874 12.3018C14.0487 12.5266 14.0645 12.8442 14.2393 13.1125ZM11.301 9.74865C11.5615 10.0199 11.8151 10.1888 12.0569 10.2816C12.0258 10.4122 11.9844 10.6834 12.1004 10.9524C12.1958 11.17 12.3685 11.3368 12.6179 11.4484C12.6455 11.7167 12.8065 12.1207 13.2535 12.2991C13.0573 12.5065 12.8666 12.7023 12.7906 12.7806L10.9777 12.7509C10.9178 12.7208 10.8682 12.6722 10.8354 12.6116C10.8319 12.6022 10.8257 12.5971 10.8216 12.587L11.118 12.6377L11.1366 12.6385C11.1645 12.6387 11.1915 12.6284 11.2128 12.6095C11.2341 12.5906 11.2483 12.5644 11.2527 12.5355C11.2577 12.503 11.2503 12.4698 11.232 12.443C11.2138 12.4162 11.1862 12.3981 11.1553 12.3926L10.7912 12.3317L11.1947 10.8661L10.8126 10.0198L10.1998 10.7015L10.1625 12.2251L9.7507 12.1562C9.68714 12.1432 9.62634 12.1925 9.61459 12.2599C9.60999 12.2926 9.61776 12.3258 9.63623 12.3525C9.65469 12.3792 9.68239 12.3972 9.71339 12.4028L9.88611 12.4303C9.82393 12.4673 9.78317 12.497 9.77833 12.5007L9.74379 12.5268L9.73411 12.5717C9.63394 12.9996 9.86055 13.4057 10.1051 13.587L10.0961 13.6414C10.0865 13.7066 10.1003 13.7719 10.1376 13.8248C10.1588 13.857 10.1873 13.8832 10.2204 13.9012C10.2535 13.9191 10.2903 13.9283 10.3276 13.9278C10.38 13.9274 10.4306 13.9084 10.4714 13.8739C10.5122 13.8394 10.5406 13.7914 10.5521 13.7378C10.6433 13.7487 10.7269 13.7516 10.7836 13.7516H10.8326L13.21 14.2034L13.2508 14.1751C13.4401 14.0359 14.1627 13.4826 14.399 13.2991C14.4647 13.3578 14.5372 13.4115 14.625 13.4557C14.5483 13.7262 14.5434 14.1417 14.846 14.471H8.7869V10.7943C8.7869 10.4376 8.6881 10.0793 8.57065 9.74863L11.301 9.74865ZM10.9736 4.20103L12.555 4.7645V7.37672L11.3909 6.7313L10.9736 4.20035V4.20103ZM14.8314 3.88557C14.8314 3.24813 13.8109 2.67452 12.6848 2.67452H12.6779C11.5517 2.67452 10.532 3.24813 10.532 3.88557L10.5541 4.04221L11.0039 6.75661L10.552 7.03216L9.38377 7.75009H9.38791C9.38791 7.75009 9.12539 7.89223 9.00307 7.97925C8.55814 8.30415 8.46347 8.77839 8.72188 8.97419C8.78544 8.58768 9.07629 8.18374 9.62004 8.18374C10.0125 8.18374 10.3109 8.39694 10.5527 8.71528C10.6149 8.79578 10.6736 8.88207 10.7282 8.97418C10.7959 9.09094 10.8643 9.19391 10.9313 9.29253H7.92046C8.14154 9.76027 8.35226 10.2556 8.35226 10.7936V17.8004C8.35226 19.4958 9.5924 20.3051 10.9341 20.3051C11.9711 20.3051 12.1107 20.2558 12.6827 20.8548C13.252 20.2558 13.3923 20.3051 14.43 20.3051C15.7724 20.3051 17.0106 19.4958 17.0106 17.8004V10.7936C17.0106 10.2555 17.2213 9.76027 17.4438 9.29253H14.4314C14.4992 9.1939 14.5669 9.09093 14.6346 8.97418C14.6898 8.88209 14.7486 8.79579 14.8094 8.71528C15.0526 8.39548 15.351 8.18374 15.7434 8.18374C16.2872 8.18374 16.5773 8.58768 16.6416 8.97419C16.9 8.77839 16.8067 8.30412 16.3583 7.97925C16.2395 7.89223 15.9756 7.75009 15.9756 7.75009H15.9804L14.8094 7.03216L14.3603 6.75661L14.8094 4.04221L14.8314 3.88557ZM2.57361 7.19667C2.81681 6.93342 3.07311 6.85368 3.29421 6.85368C3.63411 6.85368 3.89183 7.0444 3.89183 7.0444C2.97296 7.55928 2.78364 8.38452 2.25857 8.57091C2.17306 8.60203 2.08309 8.61748 1.99259 8.6166C1.60636 8.6166 1.2326 8.35408 1.10548 8.05458C1.10548 8.05458 1.81293 8.00888 2.57361 7.19667ZM1.99256 8.94725C2.119 8.94725 2.24267 8.92695 2.36011 8.88488C2.68896 8.77031 2.89902 8.49546 3.1201 8.20829C3.34602 7.91605 3.60025 7.58463 4.04104 7.33807L4.49427 7.08207L4.07283 6.77025C4.03828 6.74777 3.72254 6.52369 3.29421 6.52369C2.94323 6.52369 2.61713 6.6738 2.34839 6.96241C1.69413 7.66511 1.10756 7.72166 1.08613 7.72239L0.630127 7.75067L0.816667 8.19085C1.00597 8.62958 1.50067 8.94725 1.99256 8.94725ZM4.05348 12.7934C4.00512 11.5454 4.30909 10.5338 4.78582 9.69969C4.52053 10.5685 4.55645 11.6316 5.4629 12.6252C5.4629 12.6252 3.66106 10.3554 6.17935 8.03049C7.18667 7.14506 8.28864 6.59828 8.85532 6.21101C6.80614 6.91444 5.80506 6.13994 5.80506 6.13994C6.45933 6.73675 7.30705 6.72734 7.83281 6.64031C7.69049 6.71356 7.54126 6.7897 7.38236 6.88035C5.65307 7.86731 4.10074 9.49257 3.83396 11.7418V11.7252C3.43258 13.934 2.53856 14.5012 2.53856 14.5012C3.25017 14.1313 3.69787 13.1523 3.80701 12.7999C3.92585 14.7419 4.82677 16.0891 5.87967 17.3865C6.42685 18.0588 6.61893 18.7122 6.61893 18.7122C6.61893 18.7122 6.51253 17.9718 6.03788 17.3692C5.05684 16.1269 4.12274 14.5809 4.05365 12.7932L4.05348 12.7934ZM12.0891 8.24135V8.68806C12.2355 8.50024 12.5174 8.53867 12.5174 8.53867V9.18191C12.5174 9.18191 12.5085 9.4981 12.4014 9.63514H13.0135C12.9071 9.49809 12.8967 9.18191 12.8967 9.18191V8.53867C12.8967 8.53867 13.18 8.50024 13.3251 8.68806V8.24135H12.0884H12.0891ZM11.8266 5.59611C12.0221 5.75927 12.1354 5.78683 12.1388 5.78901L12.2148 5.82599V5.40612L11.4963 5.08848C11.4963 5.08848 11.5025 5.33215 11.8266 5.59611ZM13.5358 5.59611C13.8605 5.33213 13.8674 5.08849 13.8674 5.08849L13.1482 5.40613V5.82673L13.2242 5.78902C13.2277 5.78684 13.3403 5.75928 13.5358 5.59611ZM22.0705 6.85428C22.2902 6.85428 22.5472 6.93332 22.7891 7.19657C23.5504 8.00876 24.2586 8.05446 24.2586 8.05446C24.1301 8.35396 23.757 8.61721 23.3708 8.61721C23.2816 8.61721 23.1911 8.6027 23.1034 8.57007C22.579 8.38442 22.3918 7.55844 21.4722 7.04429C21.4722 7.04429 21.7278 6.85428 22.0705 6.85428ZM21.3223 7.33725C21.7624 7.58382 22.0194 7.91521 22.2446 8.2082C22.4657 8.49464 22.675 8.77022 23.0046 8.8848C23.1207 8.92686 23.2444 8.94717 23.3708 8.94717C23.8634 8.94717 24.3587 8.62952 24.5467 8.19007L24.7353 7.75062L24.2786 7.72161C24.2572 7.72161 23.6692 7.66433 23.0156 6.96236C22.7462 6.67374 22.4208 6.52291 22.0705 6.52291C21.6421 6.52291 21.3243 6.74771 21.2898 6.77093L20.8697 7.08204L21.3223 7.33725ZM21.5289 11.7253V11.742C21.2636 9.49246 19.7104 7.86795 17.981 6.88047C17.8221 6.79055 17.6735 6.71368 17.5305 6.64116C18.0563 6.72673 18.904 6.73688 19.559 6.14079C19.559 6.14079 18.5572 6.91455 16.5075 6.21113C17.074 6.59838 18.1773 7.14516 19.1847 8.02989C21.7016 10.3562 19.9011 12.6246 19.9011 12.6246C20.8062 11.6318 20.8435 10.5687 20.5768 9.70013C21.0535 10.5341 21.3575 11.5457 21.3105 12.7939C21.2414 14.5814 20.3067 16.1273 19.3235 17.3699C18.851 17.9718 18.746 18.7129 18.746 18.7129C18.746 18.7129 18.9366 18.0595 19.4831 17.3873C20.5367 16.0892 21.4383 14.7425 21.5558 12.8006C21.6649 13.1538 22.114 14.1327 22.8256 14.5019C22.8256 14.5019 21.9309 13.9348 21.5288 11.7259L21.5289 11.7253ZM7.8354 20.2359C5.21219 20.2359 5.27932 17.871 5.27932 17.871C5.27932 17.871 5.09554 18.5716 4.36528 18.7536C4.27608 18.7772 4.18436 18.7886 4.09238 18.7877C3.85748 18.7877 3.65298 18.7297 3.65298 18.7297C3.65298 18.7297 4.03504 17.8797 3.65437 16.6912C3.34069 15.705 3.39185 14.9733 3.39185 14.9733C3.39185 14.9733 3.03881 15.5353 2.16206 15.5411H2.15308C1.42417 15.5411 1.10567 14.9588 1.10567 14.9588C2.85361 14.1952 2.68228 11.7317 2.68228 11.7317C2.68228 11.7317 2.45428 11.9101 2.01211 11.9275H1.96581C1.00132 11.9275 0.674546 10.8426 0.674546 10.8426H0.694582C0.872831 10.8426 2.30366 10.7991 3.31581 9.44516C3.98251 8.55539 4.5297 7.77289 5.6067 7.46542L5.71517 7.44511L5.73797 7.33126C5.76837 7.15867 5.65506 6.99549 5.39945 6.82075C3.91059 5.79536 4.92138 4.48787 4.92138 4.48787C4.92138 4.48787 5.34419 5.53284 6.29833 5.53284L6.36742 5.53211C6.4752 5.52631 6.5809 5.52123 6.68523 5.49803L6.86071 5.46249C6.86071 5.46249 6.58851 4.68655 7.24485 3.97444C7.73814 3.43634 8.33714 3.34498 8.68328 3.34498C8.85946 3.34498 8.96792 3.36891 8.96792 3.36891C8.64046 3.82068 8.40278 4.57125 8.78138 5.03392C9.11024 5.43206 9.91097 5.45091 9.91097 6.04337C9.91097 6.29502 9.68782 6.58799 9.28779 6.85122C8.08221 7.64892 6.88633 8.70767 6.38864 10.1267C5.76823 11.8961 6.46878 13.0709 7.46849 13.7454C7.46849 13.7454 7.15413 14.0485 6.69954 14.0869C6.61044 14.0959 6.52098 14.1005 6.43147 14.1007C5.4725 14.1007 4.97646 13.6279 4.97646 13.6279C4.97646 13.6279 5.05937 14.2813 5.55543 14.889C6.01834 15.4488 6.62285 15.7787 7.54521 15.7925C7.54521 15.7925 7.57491 16.2422 7.16659 16.6323C6.90476 16.8789 6.3016 16.9586 6.3016 16.9586C6.3016 16.9586 7.43257 17.1994 7.55695 18.9543C7.62465 19.9057 7.85402 20.2357 7.85402 20.2357L7.8354 20.2359ZM8.11382 20.0473C8.11313 20.0437 7.93005 19.7427 7.87131 18.9306C7.80223 17.9574 7.45264 17.3888 7.10652 17.0625C7.2067 17.0132 7.29997 16.9516 7.37734 16.8776C7.88514 16.3975 7.86371 15.8333 7.86027 15.771L7.84092 15.4664L7.55007 15.4621C6.77489 15.449 6.23393 15.2053 5.79521 14.6702C5.70064 14.5543 5.61645 14.4295 5.54372 14.2974C5.78554 14.375 6.08124 14.4323 6.43152 14.4323C6.52479 14.4323 6.6229 14.4265 6.72585 14.4192C7.07848 14.3823 7.41189 14.233 7.68135 13.9914L7.98328 13.6992L7.63922 13.4671C6.86821 12.9486 6.0799 11.966 6.68579 10.2423C7.07754 9.12192 7.98328 8.1074 9.45614 7.13401C9.95359 6.80405 10.2258 6.41462 10.2258 6.04334C10.2258 5.46973 9.76979 5.24348 9.43541 5.08176C9.27236 4.99981 9.10242 4.91859 9.0202 4.81778C8.76113 4.50232 8.97875 3.89826 9.21987 3.57045L9.52802 3.14624L9.02852 3.04254C9.0147 3.04036 8.88343 3.01499 8.68307 3.01499C8.31066 3.01499 7.59836 3.10998 7.01803 3.74306C6.53372 4.26954 6.47016 4.83012 6.49503 5.19197C6.44804 5.19632 6.40107 5.19849 6.35132 5.20067H6.29812C5.56855 5.20067 5.22449 4.38848 5.21136 4.35728L5.00616 3.84966L4.67453 4.27751C4.65588 4.30362 4.17018 4.93887 4.289 5.73585C4.36707 6.26524 4.6835 6.72208 5.22655 7.09773C5.28597 7.13762 5.32673 7.1717 5.35644 7.19998C4.33115 7.55023 3.75979 8.31819 3.15596 9.12533L3.06891 9.23991C2.14588 10.4749 0.839328 10.5119 0.683273 10.5119L0.238342 10.4974L0.373756 10.9426C0.389646 10.9963 0.783438 12.2603 1.96557 12.2603L2.02222 12.2581C2.14727 12.2544 2.25989 12.2363 2.35937 12.216C2.31101 12.9049 2.06921 14.1791 0.983116 14.6527L0.651487 14.7977L0.831119 15.1262C0.8477 15.1559 1.25118 15.8717 2.16455 15.8717C2.49145 15.8751 2.81429 15.7955 3.10553 15.6396C3.14077 15.9514 3.21401 16.351 3.35634 16.7985C3.68658 17.8326 3.37914 18.5585 3.36739 18.5875L3.20434 18.9486L3.57258 19.0509C3.59745 19.0581 3.82408 19.1176 4.09212 19.1176C4.46095 19.1186 4.81788 18.9806 5.09806 18.7289C5.19824 19.053 5.37026 19.4192 5.66803 19.7434C6.17513 20.2909 6.90404 20.5672 7.85607 20.5672L8.43295 20.5592L8.11382 20.0473ZM11.2815 16.0553C11.271 16.0544 11.2604 16.0557 11.2504 16.0592C11.2404 16.0627 11.2311 16.0682 11.2232 16.0755C11.2153 16.0829 11.2088 16.0918 11.2043 16.1017C11.1997 16.1117 11.197 16.1225 11.1965 16.1336C11.1957 16.1446 11.197 16.1558 11.2003 16.1663C11.2037 16.1768 11.2091 16.1865 11.2161 16.1948C11.2232 16.203 11.2317 16.2097 11.2413 16.2144C11.2509 16.2191 11.2613 16.2217 11.2718 16.2221C11.2929 16.2235 11.3137 16.2161 11.3298 16.2016C11.3458 16.1871 11.3557 16.1666 11.3575 16.1445C11.3586 16.1221 11.3513 16.1001 11.337 16.0834C11.3228 16.0667 11.3028 16.0566 11.2815 16.0553ZM14.8921 22.5165L14.5363 21.4868C14.9598 21.3512 15.6873 21.0597 16.0141 20.866L15.7964 21.6152L16.5336 21.8726C16.0873 22.1076 15.547 22.3273 14.8921 22.5158L14.8921 22.5165ZM12.6826 23.4411C11.8252 23.4411 10.8469 23.2337 10.5581 23.1257L10.9962 21.8798C11.3596 21.9915 12.1154 22.1097 12.6647 22.1061H12.6992C13.2478 22.1097 14.0029 21.9908 14.3684 21.8798L14.8057 23.1257C14.5169 23.2345 13.5387 23.4411 12.6826 23.4411ZM8.83029 21.8726L9.56816 21.6151L9.34984 20.866C9.67522 21.0596 10.4048 21.3519 10.827 21.4868L10.4712 22.5165C9.81827 22.328 9.27591 22.1075 8.83029 21.8726ZM16.5669 21.6442L16.1178 21.4629L16.2422 20.9755L16.3783 20.444C16.3783 20.444 15.5838 20.898 14.4624 21.2381C14.1446 21.3338 13.9042 21.3781 13.9042 21.3781V21.7399C13.9042 21.7399 13.3045 21.8487 12.6993 21.8487H12.6648C12.0582 21.8487 11.4599 21.7399 11.4599 21.7399V21.3773C11.4599 21.3773 11.2188 21.3338 10.901 21.2381C9.78102 20.8973 8.98648 20.444 8.98648 20.444L9.12052 20.9755L9.24764 21.4629L8.79718 21.6442L8.29768 21.8399C8.86974 22.1307 9.66287 22.5535 10.3883 22.7624L10.2177 23.2541C10.2177 23.2541 11.1379 23.695 12.6711 23.6993V23.7H12.6918V23.6993C14.2269 23.695 15.1472 23.2541 15.1472 23.2541L14.9745 22.7624C15.7006 22.5535 16.4951 22.1315 17.0644 21.8399L16.5669 21.6442ZM10.8082 1.80537L11.012 1.82858L11.0998 1.63278L11.3568 1.05483L11.8335 1.31445L12.0186 1.4138L12.6805 0.723421L13.1966 1.26006L13.3445 1.4138L13.5296 1.31445L14.0036 1.05483L14.2647 1.63278L14.3511 1.82858L14.5549 1.80537L14.7497 1.78144C14.6606 1.99247 14.595 2.19336 14.5473 2.36013C14.0326 2.05772 13.3638 1.88659 12.6812 1.88659C12.0014 1.88659 11.3326 2.05773 10.8158 2.36013C10.7601 2.16302 10.6927 1.96976 10.6141 1.78144L10.8075 1.80537H10.8082ZM12.6805 2.18755C13.5946 2.18755 14.3248 2.50662 14.729 2.84527C14.729 2.84527 14.8492 2.08602 15.2582 1.41667L14.5225 1.5037L14.1376 0.644344L13.3984 1.04537L12.6805 0.299896L11.9655 1.04537L11.2248 0.644344L10.8407 1.50442L10.1049 1.41595C10.5146 2.08603 10.6341 2.84455 10.6341 2.84455C11.0404 2.50587 11.7685 2.18755 12.6805 2.18755ZM24.2586 14.9585C24.2586 14.9585 23.9408 15.5408 23.2112 15.5408H23.2022C22.3262 15.535 21.9724 14.973 21.9724 14.973C21.9724 14.973 22.0235 15.7039 21.7085 16.6909C21.3285 17.8802 21.7113 18.7286 21.7113 18.7286C21.7113 18.7286 21.5068 18.7874 21.2712 18.7874C21.1814 18.7874 21.0874 18.778 20.9983 18.7533C20.2666 18.5713 20.0842 17.8708 20.0842 17.8708C20.0842 17.8708 20.1519 20.2356 17.5286 20.2356H17.5079C17.5079 20.2356 17.7394 19.9056 17.8078 18.9542C17.9321 17.1993 19.0624 16.9578 19.0624 16.9578C19.0624 16.9578 18.4593 16.878 18.1974 16.6321C17.7891 16.2427 17.8175 15.7924 17.8175 15.7924C18.7405 15.7786 19.3457 15.4487 19.8065 14.8881C20.1035 14.5295 20.3038 14.0941 20.3869 13.627C20.3869 13.627 19.8908 14.1006 18.9312 14.1006C18.8469 14.1006 18.7571 14.0962 18.6645 14.0868C18.2099 14.0484 17.8963 13.7445 17.8963 13.7445C18.8953 13.0708 19.5958 11.8953 18.9747 10.1258C18.4773 8.70812 17.2807 7.6487 16.0766 6.85087C15.6758 6.58762 15.452 6.29465 15.452 6.04302C15.452 5.45056 16.2534 5.43171 16.5823 5.03357C16.9623 4.5709 16.7239 3.82036 16.395 3.36856C16.395 3.36856 16.5056 3.34463 16.6804 3.34463C17.0272 3.34463 17.6269 3.436 18.1202 3.97409C18.7745 4.68623 18.5029 5.46214 18.5029 5.46214L18.6784 5.4984C18.7834 5.52088 18.8878 5.52596 18.9962 5.53176L19.0667 5.53249C20.0181 5.53249 20.443 4.4868 20.443 4.4868C20.443 4.4868 21.4544 5.79501 19.9656 6.8204C19.7093 6.99517 19.5959 7.15835 19.6257 7.33091L19.6491 7.44476L19.7549 7.46434C20.834 7.77255 21.3805 8.55574 22.0473 9.44481C23.0601 10.7987 24.4931 10.8422 24.6693 10.8422H24.6886C24.6886 10.8422 24.3618 11.9278 23.398 11.9278C23.3821 11.9278 23.3683 11.9278 23.3524 11.9264C22.9103 11.9097 22.6823 11.7313 22.6823 11.7313C22.6823 11.7313 22.5102 14.1946 24.2589 14.9584L24.2586 14.9585ZM23.3977 12.2599C24.5792 12.2599 24.9743 10.996 24.9909 10.9423L25.1222 10.4963L24.68 10.5108H24.6788C24.5219 10.5108 23.2189 10.4746 22.2952 9.2396L22.2074 9.12502C21.6036 8.31791 21.0308 7.54994 20.0069 7.19967C20.0479 7.16207 20.0915 7.12788 20.1375 7.09742C20.6805 6.72177 20.997 6.26566 21.0757 5.73554C21.1925 4.93856 20.7082 4.30333 20.6874 4.2772L20.3586 3.84935L20.1527 4.35697C20.1389 4.38815 19.7934 5.20036 19.0666 5.20036H19.0127C18.963 5.19817 18.9153 5.19601 18.8683 5.19166C18.8939 4.82906 18.831 4.26923 18.3474 3.74275C17.7664 3.10965 17.0534 3.01468 16.6803 3.01468C16.4813 3.01468 16.3487 3.04078 16.3342 3.04223L15.8374 3.14593L16.1435 3.57015C16.3839 3.89793 16.6023 4.50201 16.3439 4.81747C16.261 4.91899 16.091 4.99949 15.9287 5.08145C15.5943 5.24316 15.1369 5.46942 15.1369 6.04303C15.1369 6.41431 15.4112 6.80374 15.9086 7.1337C17.3788 8.10616 18.2866 9.1214 18.6784 10.242C19.2851 11.965 18.494 12.9483 17.725 13.466L17.381 13.6988L17.6829 13.9903C17.7236 14.028 18.0919 14.3696 18.637 14.4189C18.7406 14.4261 18.8394 14.4319 18.932 14.4319C19.2809 14.4319 19.5787 14.3739 19.8205 14.2971C19.7482 14.4295 19.664 14.5543 19.569 14.6698C19.1303 15.205 18.59 15.4486 17.8127 15.4617L17.5239 15.466L17.5018 15.7706C17.4991 15.8322 17.4776 16.3972 17.9854 16.8772C18.0635 16.9512 18.1575 17.0128 18.2563 17.0621C17.9108 17.3885 17.5613 17.957 17.4935 18.9302C17.4362 19.7424 17.2517 20.0433 17.2496 20.0469L16.9304 20.5589L17.5073 20.5669C18.4601 20.5669 19.1896 20.2913 19.6947 19.7431C19.9563 19.4551 20.1515 19.1081 20.2653 18.7286C20.5459 18.9797 20.9026 19.1175 21.2713 19.1173C21.5407 19.1173 21.7659 19.0571 21.7908 19.0513L22.1591 18.9483L21.9967 18.5872C21.9843 18.5582 21.6775 17.833 22.0077 16.7982C22.1501 16.3507 22.2226 15.9504 22.2579 15.6379C22.49 15.7655 22.8002 15.8699 23.2016 15.8714C24.1136 15.8714 24.515 15.1556 24.533 15.1259L24.7126 14.7967L24.3796 14.6531C23.2935 14.1788 23.0531 12.9054 23.0047 12.2165C23.1035 12.236 23.2155 12.2542 23.3419 12.2578L23.3977 12.2599Z" fill="black"/>
</g>
<defs>
<clipPath id="clip0_261_760">
<rect width="25" height="25" fill="white"/>
</clipPath>
</defs>
</svg>
