<svg width="25" height="25" viewBox="0 0 25 25" fill="none" xmlns="http://www.w3.org/2000/svg">
<circle cx="12.5" cy="12.5" r="12.5" fill="#22A079"/>
<path fill-rule="evenodd" clip-rule="evenodd" d="M14.1919 8.37606V10.4534L14.1941 10.4556C17.9842 10.6333 20.8334 11.3999 20.8334 12.3149C20.8334 13.2322 17.9842 13.9966 14.1941 14.1742V20.8333H10.817V14.1742C7.02251 13.9943 4.16669 13.2299 4.16669 12.3127C4.16669 11.3954 7.0203 10.631 10.817 10.4534V8.37606H6.14566V5.20834H18.8632V8.37606H14.1919ZM14.1919 13.6031V13.6054V13.6076C17.538 13.4547 20.036 12.8612 20.036 12.1508C20.036 11.4404 17.5402 10.8468 14.1919 10.694V13.0141C14.0947 13.0231 13.5734 13.0681 12.5309 13.0681C11.6629 13.0681 11.0335 13.0298 10.8148 13.0141V10.6917C7.46203 10.8423 4.95739 11.4381 4.95739 12.1485C4.95739 12.8612 7.45982 13.4547 10.8148 13.6054V13.6031C11.0313 13.6144 11.6431 13.6391 12.5155 13.6391C13.6066 13.6391 14.0969 13.6099 14.1919 13.6031Z" fill="white"/>
</svg>
