<svg width="28" height="28" viewBox="0 0 28 28" fill="none" xmlns="http://www.w3.org/2000/svg">
<g clip-path="url(#clip0_41_509)">
<path d="M14 18.5L18.5 14M18.5 14L14 9.50001M18.5 14H2M2 6.87204V6.80031C2 5.12015 2 4.27944 2.32698 3.63771C2.61459 3.07322 3.0732 2.61461 3.6377 2.327C4.27943 2.00002 5.12013 2.00002 6.8003 2.00002H21.2003C22.8804 2.00002 23.7194 2.00002 24.3611 2.327C24.9255 2.61461 25.3857 3.07322 25.6733 3.63771C26 4.27881 26 5.1185 26 6.79538V21.2054C26 22.8823 26 23.7208 25.6733 24.3619C25.3857 24.9263 24.9255 25.3858 24.3611 25.6733C23.72 26 22.8815 26 21.2046 26H6.79536C5.11848 26 4.2788 26 3.6377 25.6733C3.0732 25.3858 2.61459 24.9259 2.32698 24.3614C2 23.7197 2 22.8802 2 21.2V21.125" stroke="#9D9D9D" stroke-width="2.33333" stroke-linecap="round" stroke-linejoin="round"/>
</g>
<defs>
<clipPath id="clip0_41_509">
<rect width="28" height="28" fill="white"/>
</clipPath>
</defs>
</svg>
